<svg width="271" height="33" viewBox="0 0 271 33" fill="none" xmlns="http://www.w3.org/2000/svg">
<g clip-path="url(#clip0_388_5088)">
<path d="M12.823 11.1935L3.82584 6.09643C3.40078 5.88696 2.97572 5.74731 2.55066 5.74731C1.70054 5.74731 0.779572 6.16624 0.35451 7.00411C-0.353925 8.1911 0.0711361 9.72719 1.27548 10.4254L10.2726 15.5224C10.6977 15.7319 11.1227 15.8715 11.5478 15.8715C12.3979 15.8715 13.3189 15.4526 13.7439 14.6147C14.4524 13.4278 14.0273 11.8917 12.823 11.1935Z" fill="white"/>
<path d="M30.7458 6.09652L21.7487 0.999501C21.3236 0.790035 20.8986 0.650391 20.4735 0.650391C19.6234 0.650391 18.7024 1.06932 18.2774 1.90719C17.5689 3.09417 17.994 4.63025 19.1983 5.32847L28.1955 10.4255C28.6205 10.635 29.0456 10.7746 29.4706 10.7746C30.3208 10.7746 31.2417 10.3557 31.6668 9.51781C32.4461 8.33083 32.021 6.72492 30.7458 6.09652Z" fill="white"/>
<path d="M27.8412 11.0539L23.6615 8.67993L19.1983 11.1935C17.994 11.8917 17.5689 13.4278 18.2774 14.6148C18.7733 15.4527 19.6234 15.8716 20.4735 15.8716C20.8986 15.8716 21.3236 15.732 21.7487 15.5225L28.9747 11.403C28.6205 11.403 28.1955 11.2633 27.8412 11.0539Z" fill="white"/>
<path d="M4.17939 5.46807L8.35916 7.84202L12.8223 5.32843C14.0266 4.63021 14.4517 3.09412 13.7433 1.90714C13.0348 0.720168 11.4763 0.301235 10.2719 0.999456L3.0459 5.04914C3.47096 5.11896 3.82518 5.25861 4.17939 5.46807Z" fill="white"/>
<path d="M42.2225 13.2184C41.3015 12.7296 40.5931 11.9616 40.0264 11.054C39.4596 10.1463 39.2471 9.09894 39.2471 7.98172C39.2471 6.8646 39.5304 5.88709 40.0264 4.90958C40.5931 4.00189 41.3015 3.30367 42.2225 2.74509C43.1435 2.25634 44.1353 1.97705 45.2688 1.97705C46.1189 1.97705 46.8982 2.11669 47.6774 2.39598C48.4567 2.67527 49.0235 3.0942 49.5194 3.65278L48.5276 4.63029C48.1733 4.21136 47.6774 3.86225 47.1107 3.58296C46.5439 3.37349 45.9064 3.23385 45.2688 3.23385C44.4895 3.23385 43.7102 3.44332 43.0018 3.79243C42.2933 4.21136 41.7266 4.70011 41.3015 5.46816C40.8765 6.16638 40.6639 7.00424 40.6639 7.91196C40.6639 8.81965 40.8765 9.65752 41.3015 10.3557C41.7266 11.054 42.2933 11.6125 43.0018 12.0314C43.7102 12.4503 44.4895 12.59 45.2688 12.59C46.048 12.59 46.6856 12.4504 47.2524 12.2409C47.7483 12.0315 48.2442 11.6824 48.5984 11.2634C48.8818 10.9841 49.0943 10.635 49.3068 10.1463C49.4485 9.72734 49.5902 9.23851 49.5902 8.74983H45.2688V7.49303H50.8654C50.9362 7.77232 50.9362 8.05161 50.9362 8.33083C50.9362 9.02905 50.7946 9.72734 50.582 10.3557C50.3695 11.054 50.0153 11.6125 49.5194 12.1013C48.4567 13.2184 46.969 13.8468 45.2688 13.8468C44.1353 13.9865 43.1435 13.777 42.2225 13.2184Z" fill="white"/>
<path d="M53.9826 13.4277C53.345 13.0786 52.8491 12.5201 52.4949 11.8917C52.1407 11.2633 51.999 10.4952 51.999 9.72713C51.999 8.95909 52.1407 8.19111 52.4949 7.56272C52.8491 6.93428 53.345 6.3757 53.9826 6.02659C54.6202 5.67748 55.3287 5.46802 56.1079 5.46802C56.8872 5.46802 57.5957 5.67748 58.2332 6.02659C58.8708 6.3757 59.3667 6.93428 59.721 7.56272C60.0752 8.19111 60.2169 8.95909 60.2169 9.72713C60.2169 10.4952 60.0752 11.2633 59.721 11.8917C59.3667 12.5201 58.8708 13.0786 58.2332 13.4277C57.5957 13.7768 56.8872 13.9863 56.1079 13.9863C55.3287 13.9863 54.6202 13.8466 53.9826 13.4277ZM57.454 12.3804C57.879 12.1011 58.2332 11.752 58.4458 11.333C58.7292 10.9141 58.8 10.3555 58.8 9.72713C58.8 9.09873 58.6583 8.61005 58.4458 8.12129C58.1624 7.70236 57.879 7.28339 57.454 7.07393C57.0289 6.79464 56.6038 6.72482 56.1079 6.72482C55.612 6.72482 55.187 6.86446 54.7619 7.07393C54.3369 7.35321 53.9826 7.70236 53.7701 8.12129C53.4867 8.61005 53.4159 9.09873 53.4159 9.72713C53.4159 10.3555 53.5576 10.8443 53.7701 11.333C54.0535 11.8218 54.3369 12.1709 54.7619 12.3804C55.187 12.6597 55.612 12.7295 56.1079 12.7295C56.6038 12.7993 57.0998 12.6597 57.454 12.3804Z" fill="white"/>
<path d="M63.1926 13.4277C62.555 13.0786 62.0591 12.5201 61.7049 11.8917C61.3507 11.2633 61.209 10.4952 61.209 9.72713C61.209 8.95909 61.3507 8.19111 61.7049 7.56272C62.0591 6.93428 62.555 6.3757 63.1926 6.02659C63.8302 5.67748 64.5386 5.46802 65.3179 5.46802C66.0972 5.46802 66.8056 5.67748 67.4432 6.02659C68.0808 6.3757 68.5767 6.93428 68.9309 7.56272C69.2851 8.19111 69.4268 8.95909 69.4268 9.72713C69.4268 10.4952 69.2851 11.2633 68.9309 11.8917C68.5767 12.5201 68.0808 13.0786 67.4432 13.4277C66.8056 13.7768 66.0972 13.9863 65.3179 13.9863C64.5386 13.9863 63.8302 13.8466 63.1926 13.4277ZM66.7348 12.3804C67.1598 12.1011 67.5141 11.752 67.7266 11.333C68.01 10.9141 68.0808 10.3555 68.0808 9.72713C68.0808 9.09873 67.9391 8.61005 67.7266 8.12129C67.4432 7.70236 67.1598 7.28339 66.7348 7.07393C66.3097 6.79464 65.8847 6.72482 65.3887 6.72482C64.8928 6.72482 64.4678 6.86446 64.0427 7.07393C63.6177 7.35321 63.2634 7.70236 63.0509 8.12129C62.7675 8.61005 62.6967 9.09873 62.6967 9.72713C62.6967 10.3555 62.8384 10.8443 63.0509 11.333C63.3343 11.8218 63.6177 12.1709 64.0427 12.3804C64.4678 12.6597 64.8928 12.7295 65.3887 12.7295C65.8138 12.7993 66.3097 12.6597 66.7348 12.3804Z" fill="white"/>
<path d="M72.0474 16.7792C71.4098 16.2905 70.9848 15.8017 70.7722 15.1733L72.0474 14.6147C72.1891 15.1035 72.4725 15.4526 72.8976 15.7319C73.3226 16.0112 73.8185 16.1508 74.3853 16.1508C75.2354 16.1508 75.873 15.8715 76.3689 15.3828C76.8648 14.894 77.0773 14.1958 77.0773 13.3579V12.5201H77.0065C76.7231 12.939 76.3689 13.2881 75.873 13.4976C75.3771 13.7769 74.8103 13.9165 74.2436 13.9165C73.5352 13.9165 72.8976 13.707 72.3308 13.3579C71.7641 13.0088 71.2682 12.5201 70.9139 11.8218C70.5597 11.1934 70.418 10.4254 70.418 9.65736C70.418 8.81949 70.5597 8.12127 70.9139 7.49287C71.2682 6.86446 71.6932 6.3757 72.3308 5.95676C72.8976 5.60765 73.5352 5.39819 74.2436 5.39819C74.8812 5.39819 75.4479 5.53784 75.873 5.81713C76.3689 6.09641 76.7231 6.44553 77.0065 6.79464H77.0773V5.60765H78.4234V13.2183C78.4234 14.126 78.2817 14.8242 77.9274 15.4526C77.5732 16.081 77.0773 16.4999 76.5106 16.7792C75.9438 17.0585 75.2354 17.1981 74.4561 17.1981C73.4643 17.4774 72.6142 17.268 72.0474 16.7792ZM75.7313 12.3804C76.1564 12.171 76.4397 11.8218 76.7231 11.3331C76.9356 10.9142 77.0773 10.3556 77.0773 9.72718C77.0773 9.09878 76.9356 8.61002 76.7231 8.12127C76.5106 7.63251 76.1564 7.35321 75.7313 7.07392C75.3062 6.86446 74.8812 6.72481 74.3853 6.72481C73.8894 6.72481 73.4643 6.86446 73.0392 7.07392C72.6142 7.28339 72.3308 7.63251 72.0474 8.12127C71.8349 8.5402 71.6932 9.09878 71.6932 9.72718C71.6932 10.3556 71.8349 10.8443 72.0474 11.3331C72.26 11.752 72.6142 12.1011 73.0392 12.3804C73.4643 12.5899 73.8894 12.7295 74.3853 12.7295C74.952 12.7994 75.3771 12.6597 75.7313 12.3804Z" fill="white"/>
<path d="M80.2656 2.2561H81.6116V13.7069H80.2656V2.2561Z" fill="white"/>
<path d="M84.9411 13.428C84.3035 13.0789 83.8784 12.5901 83.5242 11.8919C83.17 11.2635 83.0283 10.4955 83.0283 9.72742C83.0283 8.95938 83.17 8.26116 83.5242 7.63276C83.8784 7.00435 84.3035 6.44577 84.9411 6.09666C85.5078 5.74755 86.2163 5.53809 86.9956 5.53809C87.7748 5.53809 88.4833 5.67773 89.05 6.02684C89.6168 6.37595 90.1127 6.86471 90.3961 7.49311C90.6794 8.12151 90.892 8.81973 90.892 9.6576C90.892 9.79724 90.892 9.93689 90.892 10.0067H84.516C84.516 10.6351 84.6577 11.1239 84.9411 11.5428C85.2245 11.9617 85.5787 12.241 85.9329 12.4505C86.358 12.6599 86.783 12.7298 87.2081 12.7298C88.1999 12.7298 88.9792 12.241 89.5459 11.2635L90.7503 11.8221C90.3961 12.4505 89.9001 13.0091 89.3334 13.3582C88.6958 13.7771 87.9874 13.9167 87.1372 13.9167C86.2163 13.9866 85.5078 13.8469 84.9411 13.428ZM89.3334 8.88955C89.3334 8.54044 89.1917 8.26115 89.05 7.91204C88.9083 7.56293 88.625 7.35346 88.2707 7.07417C87.9165 6.86471 87.4206 6.72506 86.8539 6.72506C86.2163 6.72506 85.7204 6.93453 85.2953 7.28364C84.8703 7.70258 84.5869 8.19133 84.4452 8.81973H89.3334V8.88955Z" fill="white"/>
<path d="M96.0635 2.2561H99.6056C100.81 2.2561 101.802 2.46557 102.723 2.95432C103.644 3.44308 104.281 4.1413 104.777 4.97917C105.273 5.81703 105.486 6.86436 105.486 7.98153C105.486 9.09868 105.273 10.0762 104.777 10.9839C104.281 11.8217 103.644 12.52 102.723 13.0087C101.802 13.4975 100.81 13.7069 99.6056 13.7069H96.0635V2.2561ZM99.6056 12.4501C100.952 12.4501 102.085 12.0312 102.864 11.2632C103.644 10.4951 104.069 9.37797 104.069 7.98153C104.069 6.58507 103.644 5.46792 102.864 4.69988C102.085 3.93183 100.952 3.51289 99.6056 3.51289H97.4803V12.3803H99.6056V12.4501Z" fill="white"/>
<path d="M108.603 13.428C107.966 13.0789 107.541 12.5901 107.186 11.8919C106.832 11.2635 106.69 10.4955 106.69 9.72742C106.69 8.95938 106.832 8.26116 107.186 7.63276C107.541 7.00435 107.966 6.44577 108.603 6.09666C109.17 5.74755 109.878 5.53809 110.658 5.53809C111.437 5.53809 112.145 5.67773 112.712 6.02684C113.279 6.37595 113.775 6.86471 114.058 7.49311C114.342 8.12151 114.554 8.81973 114.554 9.6576C114.554 9.79724 114.554 9.93689 114.554 10.0067H108.178C108.178 10.6351 108.32 11.1239 108.603 11.5428C108.887 11.9617 109.241 12.241 109.595 12.4505C110.02 12.6599 110.445 12.7298 110.87 12.7298C111.862 12.7298 112.641 12.241 113.208 11.2635L114.412 11.8221C114.058 12.4505 113.562 13.0091 112.995 13.3582C112.429 13.7073 111.649 13.9167 110.799 13.9167C109.949 13.9866 109.241 13.8469 108.603 13.428ZM112.995 8.88955C112.995 8.54044 112.854 8.26115 112.712 7.91204C112.57 7.56293 112.287 7.35346 111.933 7.07417C111.579 6.86471 111.083 6.72506 110.516 6.72506C109.878 6.72506 109.382 6.93453 108.957 7.28364C108.532 7.70258 108.249 8.19133 108.107 8.81973H112.995V8.88955Z" fill="white"/>
<path d="M114.837 5.81714H116.325L118.804 12.1709L121.284 5.81714H122.771L119.442 13.7768H118.025L114.837 5.81714Z" fill="white"/>
<path d="M125.322 13.428C124.684 13.0789 124.259 12.5901 123.905 11.8919C123.551 11.2635 123.409 10.4955 123.409 9.72742C123.409 8.95938 123.551 8.26116 123.905 7.63276C124.259 7.00435 124.684 6.44577 125.322 6.09666C125.889 5.74755 126.597 5.53809 127.376 5.53809C128.156 5.53809 128.864 5.67773 129.431 6.02684C129.998 6.37595 130.494 6.86471 130.777 7.49311C131.06 8.12151 131.273 8.81973 131.273 9.6576C131.273 9.79724 131.273 9.93689 131.273 10.0067H124.897C124.897 10.6351 125.039 11.1239 125.322 11.5428C125.605 11.9617 125.96 12.241 126.314 12.4505C126.739 12.6599 127.164 12.7298 127.589 12.7298C128.581 12.7298 129.36 12.241 129.927 11.2635L131.131 11.8221C130.777 12.4505 130.281 13.0091 129.714 13.3582C129.077 13.7771 128.368 13.9167 127.518 13.9167C126.597 13.9866 125.889 13.8469 125.322 13.428ZM129.714 8.88955C129.714 8.54044 129.573 8.26115 129.431 7.91204C129.289 7.56293 129.006 7.35346 128.652 7.07417C128.297 6.86471 127.801 6.72506 127.235 6.72506C126.597 6.72506 126.101 6.93453 125.676 7.28364C125.251 7.70258 124.968 8.19133 124.826 8.81973H129.714V8.88955Z" fill="white"/>
<path d="M132.548 2.2561H133.965V13.7069H132.548V2.2561Z" fill="white"/>
<path d="M137.295 13.4277C136.658 13.0786 136.162 12.5201 135.807 11.8917C135.453 11.2633 135.312 10.4952 135.312 9.72713C135.312 8.95909 135.453 8.19111 135.807 7.56272C136.162 6.93428 136.658 6.3757 137.295 6.02659C137.933 5.67748 138.641 5.46802 139.42 5.46802C140.2 5.46802 140.908 5.67748 141.546 6.02659C142.183 6.3757 142.679 6.93428 143.033 7.56272C143.388 8.19111 143.529 8.95909 143.529 9.72713C143.529 10.4952 143.388 11.2633 143.033 11.8917C142.679 12.5201 142.183 13.0786 141.546 13.4277C140.908 13.7768 140.2 13.9863 139.42 13.9863C138.641 13.9863 137.862 13.8466 137.295 13.4277ZM140.766 12.3804C141.192 12.1011 141.546 11.752 141.758 11.333C142.042 10.9141 142.113 10.3555 142.113 9.72713C142.113 9.09873 141.971 8.61005 141.758 8.12129C141.475 7.70236 141.192 7.28339 140.766 7.07393C140.341 6.79464 139.916 6.72482 139.42 6.72482C138.925 6.72482 138.499 6.86446 138.074 7.07393C137.649 7.35321 137.295 7.70236 137.083 8.12129C136.799 8.61005 136.728 9.09873 136.728 9.72713C136.728 10.3555 136.87 10.8443 137.083 11.333C137.366 11.8218 137.649 12.1709 138.074 12.3804C138.499 12.6597 138.925 12.7295 139.42 12.7295C139.916 12.7993 140.341 12.6597 140.766 12.3804Z" fill="white"/>
<path d="M144.805 5.81737H146.151V7.00435H146.222C146.505 6.58542 146.859 6.23631 147.355 5.95702C147.851 5.67773 148.418 5.53809 149.055 5.53809C149.764 5.53809 150.401 5.74755 150.968 6.09666C151.535 6.44577 152.031 6.93453 152.385 7.63276C152.739 8.26115 152.881 8.95938 152.881 9.79724C152.881 10.5653 152.739 11.3333 152.385 11.9617C152.031 12.5901 151.606 13.0789 150.968 13.4978C150.401 13.8469 149.764 14.0564 149.055 14.0564C148.418 14.0564 147.851 13.9167 147.355 13.6375C146.859 13.3582 146.505 13.0091 146.222 12.5901H146.151L146.222 13.7073V17.1984H144.876V5.81737H144.805ZM150.118 12.3807C150.543 12.1014 150.826 11.7523 151.11 11.3333C151.322 10.9144 151.464 10.3558 151.464 9.72742C151.464 9.09902 151.322 8.61027 151.11 8.12151C150.897 7.70258 150.543 7.28364 150.118 7.07417C149.693 6.79488 149.268 6.72506 148.772 6.72506C148.276 6.72506 147.851 6.86471 147.426 7.07417C147.001 7.28364 146.717 7.63276 146.434 8.12151C146.222 8.54044 146.08 9.09902 146.08 9.72742C146.08 10.3558 146.222 10.8446 146.434 11.3333C146.647 11.8221 147.001 12.1712 147.426 12.3807C147.851 12.5901 148.276 12.7298 148.772 12.7298C149.268 12.7298 149.693 12.6599 150.118 12.3807Z" fill="white"/>
<path d="M156.068 13.428C155.43 13.0789 155.005 12.5901 154.651 11.8919C154.297 11.2635 154.155 10.4955 154.155 9.72742C154.155 8.95938 154.297 8.26116 154.651 7.63276C155.005 7.00435 155.43 6.44577 156.068 6.09666C156.635 5.74755 157.343 5.53809 158.122 5.53809C158.902 5.53809 159.61 5.67773 160.177 6.02684C160.744 6.37595 161.24 6.86471 161.523 7.49311C161.806 8.12151 162.019 8.81973 162.019 9.6576C162.019 9.79724 162.019 9.93689 162.019 10.0067H155.643C155.643 10.6351 155.785 11.1239 156.068 11.5428C156.351 11.9617 156.706 12.241 157.06 12.4505C157.485 12.6599 157.91 12.7298 158.335 12.7298C159.327 12.7298 160.106 12.241 160.673 11.2635L161.877 11.8221C161.523 12.4505 161.027 13.0091 160.46 13.3582C159.823 13.7771 159.114 13.9167 158.264 13.9167C157.343 13.9866 156.635 13.8469 156.068 13.428ZM160.46 8.88955C160.46 8.54044 160.319 8.26115 160.177 7.91204C160.035 7.56293 159.752 7.35346 159.398 7.07417C159.043 6.86471 158.548 6.72506 157.981 6.72506C157.343 6.72506 156.847 6.93453 156.422 7.28364C155.997 7.70258 155.714 8.19133 155.572 8.81973H160.46V8.88955Z" fill="white"/>
<path d="M163.294 5.81713H164.64V7.14375H164.711C164.852 6.72482 165.207 6.30589 165.632 6.0266C166.128 5.74731 166.553 5.60767 167.049 5.60767C167.403 5.60767 167.686 5.67749 167.97 5.74731V7.21357C167.686 7.07393 167.332 7.00411 166.836 7.00411C166.482 7.00411 166.128 7.14375 165.773 7.35322C165.419 7.56271 165.207 7.842 164.994 8.26093C164.782 8.61004 164.711 9.02898 164.711 9.44791V13.8467H163.294V5.81713Z" fill="white"/>
<path d="M173.992 13.6374C173.425 13.4279 172.929 13.0788 172.575 12.59C172.15 12.1013 171.867 11.5427 171.654 10.9143L173 10.3557C173.213 11.0539 173.496 11.6125 173.992 12.0314C174.488 12.4504 175.055 12.6598 175.763 12.6598C176.472 12.6598 177.038 12.4504 177.463 12.1013C177.959 11.7522 178.172 11.2634 178.172 10.635C178.172 10.0764 177.959 9.65749 177.605 9.30838C177.18 8.95927 176.542 8.61016 175.692 8.33087L174.984 8.05158C174.134 7.7723 173.496 7.35334 173 6.93441C172.504 6.44566 172.221 5.81726 172.221 4.9794C172.221 4.42082 172.363 3.93206 172.646 3.44331C172.929 2.95455 173.355 2.60545 173.921 2.32616C174.488 2.04687 175.055 1.90723 175.763 1.90723C176.401 1.90723 177.038 2.04687 177.534 2.25634C178.03 2.53563 178.455 2.81491 178.739 3.16402C179.022 3.51313 179.235 3.86224 179.376 4.21135L178.101 4.76993C177.959 4.351 177.747 4.00189 177.322 3.7226C176.968 3.37349 176.472 3.23385 175.834 3.23385C175.267 3.23385 174.701 3.37349 174.276 3.7226C173.85 4.07171 173.638 4.49064 173.638 4.9794C173.638 5.39833 173.85 5.81726 174.205 6.09655C174.559 6.37584 175.126 6.65513 175.834 6.8646L176.613 7.14388C177.605 7.49301 178.384 7.91194 178.951 8.47052C179.518 9.02909 179.801 9.72732 179.801 10.635C179.801 11.403 179.589 11.9616 179.235 12.5202C178.88 13.009 178.384 13.3581 177.747 13.6374C177.18 13.8468 176.542 13.9865 175.905 13.9865C175.126 13.9865 174.559 13.9166 173.992 13.6374Z" fill="white"/>
<path d="M182.918 13.8469C182.635 13.7072 182.422 13.5676 182.21 13.4279C181.997 13.2185 181.856 13.009 181.714 12.7297C181.643 12.4504 181.572 12.1013 181.572 11.7522V7.07411H180.155V5.81731H181.572V3.44336H182.918V5.81731H184.902V7.07411H182.918V11.4031C182.918 11.8918 182.989 12.1711 183.202 12.4504C183.414 12.6599 183.697 12.7995 184.052 12.7995C184.406 12.7995 184.689 12.7297 184.902 12.5901V13.9167C184.76 13.9865 184.548 14.0563 184.406 14.0563C184.264 14.0563 184.052 14.1261 183.768 14.1261C183.485 13.9865 183.202 13.9167 182.918 13.8469Z" fill="white"/>
<path d="M187.098 13.1487C186.602 12.5901 186.318 11.8221 186.318 10.7747V5.74756H187.664V10.4955C187.664 11.9617 188.302 12.6599 189.648 12.6599C190.073 12.6599 190.498 12.5203 190.852 12.3108C191.207 12.0315 191.49 11.7523 191.632 11.3333C191.773 10.9144 191.915 10.4955 191.915 10.0765V5.67773H193.261V13.6375H191.986V12.4505C191.773 12.8694 191.419 13.2185 190.923 13.4978C190.427 13.7771 189.931 13.9167 189.365 13.9167C188.373 13.9866 187.594 13.7073 187.098 13.1487Z" fill="white"/>
<path d="M196.591 13.4279C196.024 13.0788 195.528 12.59 195.174 11.8918C194.819 11.2634 194.678 10.4954 194.678 9.72731C194.678 8.95927 194.819 8.19122 195.174 7.56283C195.528 6.93443 195.953 6.44567 196.591 6.02674C197.157 5.67763 197.795 5.46816 198.503 5.46816C199.141 5.46816 199.708 5.60781 200.204 5.8871C200.699 6.16638 201.054 6.51549 201.337 6.93443H201.408L201.337 5.81727V2.18652H202.683V13.6373H201.408V12.4504H201.337C201.054 12.8693 200.699 13.2184 200.204 13.4977C199.708 13.777 199.141 13.9166 198.503 13.9166C197.795 13.9865 197.157 13.8468 196.591 13.4279ZM200.062 12.3806C200.487 12.1711 200.77 11.822 201.054 11.3332C201.266 10.8445 201.408 10.3557 201.408 9.72731C201.408 9.09891 201.266 8.61016 201.054 8.1214C200.841 7.63265 200.487 7.35336 200.062 7.07407C199.637 6.8646 199.212 6.72496 198.716 6.72496C198.22 6.72496 197.795 6.8646 197.37 7.07407C196.945 7.35336 196.661 7.70247 196.378 8.1214C196.165 8.61016 196.024 9.09891 196.024 9.72731C196.024 10.3557 196.165 10.8445 196.378 11.3332C196.591 11.822 196.945 12.1711 197.37 12.3806C197.795 12.6598 198.22 12.7297 198.716 12.7297C199.212 12.7995 199.637 12.6598 200.062 12.3806Z" fill="white"/>
<path d="M206.013 13.428C205.376 13.0789 204.951 12.5901 204.596 11.8919C204.242 11.2635 204.101 10.4955 204.101 9.72742C204.101 8.95938 204.242 8.26116 204.596 7.63276C204.951 7.00435 205.376 6.44577 206.013 6.09666C206.58 5.74755 207.289 5.53809 208.068 5.53809C208.847 5.53809 209.556 5.67773 210.122 6.02684C210.689 6.37595 211.185 6.86471 211.468 7.49311C211.752 8.12151 211.964 8.81973 211.964 9.6576C211.964 9.79724 211.964 9.93689 211.964 10.0067H205.588C205.588 10.6351 205.73 11.1239 206.013 11.5428C206.297 11.9617 206.651 12.241 207.005 12.4505C207.43 12.6599 207.855 12.7298 208.28 12.7298C209.272 12.7298 210.051 12.241 210.618 11.2635L211.823 11.8221C211.468 12.4505 210.972 13.0091 210.406 13.3582C209.768 13.7771 209.06 13.9167 208.21 13.9167C207.289 13.9866 206.58 13.8469 206.013 13.428ZM210.406 8.88955C210.406 8.54044 210.264 8.26115 210.122 7.91204C209.981 7.56293 209.697 7.35346 209.343 7.07417C208.989 6.86471 208.493 6.72506 207.926 6.72506C207.289 6.72506 206.793 6.93453 206.368 7.28364C205.943 7.70258 205.659 8.19133 205.517 8.81973H210.406V8.88955Z" fill="white"/>
<path d="M213.239 5.81737H214.585V7.00435H214.656C214.868 6.58542 215.222 6.23631 215.718 5.95702C216.214 5.67773 216.71 5.53809 217.277 5.53809C218.269 5.53809 218.977 5.81737 219.544 6.37595C220.04 6.93453 220.323 7.70258 220.323 8.68009V13.7073H218.906V8.88955C218.906 7.49311 218.198 6.72506 216.852 6.72506C216.427 6.72506 216.002 6.86471 215.647 7.07417C215.293 7.35346 215.01 7.63276 214.868 8.05169C214.656 8.47062 214.585 8.88955 214.585 9.30849V13.7073H213.168V5.81737H213.239Z" fill="white"/>
<path d="M223.865 13.8469C223.582 13.7072 223.37 13.5676 223.157 13.4279C222.944 13.2185 222.803 13.009 222.661 12.7297C222.59 12.4504 222.519 12.1013 222.519 11.7522V7.07411H221.103V5.81731H222.519V3.44336H223.865V5.81731H225.849V7.07411H223.865V11.4031C223.865 11.8918 223.936 12.1711 224.149 12.4504C224.361 12.6599 224.645 12.7995 224.999 12.7995C225.353 12.7995 225.637 12.7297 225.849 12.5901V13.9167C225.707 13.9865 225.495 14.0563 225.353 14.0563C225.211 14.0563 224.999 14.1261 224.716 14.1261C224.503 13.9865 224.149 13.9167 223.865 13.8469Z" fill="white"/>
<path d="M233.288 13.2184C232.367 12.7296 231.659 11.9616 231.092 11.054C230.596 10.1463 230.312 9.09894 230.312 7.98172C230.312 6.8646 230.596 5.88709 231.092 4.90958C231.588 4.00189 232.367 3.30367 233.288 2.74509C234.209 2.25634 235.201 1.97705 236.334 1.97705C237.184 1.97705 238.034 2.11669 238.743 2.46581C239.451 2.81492 240.089 3.23385 240.585 3.86225L239.593 4.83976C239.168 4.351 238.672 3.93207 238.105 3.65278C237.539 3.37349 236.972 3.30367 236.263 3.30367C235.413 3.30367 234.634 3.51314 233.926 3.86225C233.217 4.28118 232.65 4.76993 232.225 5.53798C231.8 6.2362 231.588 7.07406 231.588 7.98172C231.588 8.8894 231.8 9.72727 232.225 10.4255C232.65 11.1237 233.217 11.6824 233.926 12.1013C234.634 12.5202 235.413 12.6599 236.263 12.6599C237.68 12.6599 238.885 12.1013 239.876 10.9143L240.868 11.8918C240.372 12.5202 239.664 13.009 238.885 13.3581C238.105 13.7072 237.255 13.9166 236.263 13.9166C235.201 13.9865 234.209 13.7769 233.288 13.2184Z" fill="white"/>
<path d="M242.285 2.2561H243.631V13.7069H242.285V2.2561Z" fill="white"/>
<path d="M246.252 13.1487C245.756 12.5901 245.473 11.8221 245.473 10.7747V5.74756H246.819V10.4955C246.819 11.9617 247.456 12.6599 248.802 12.6599C249.227 12.6599 249.652 12.5203 250.007 12.3108C250.361 12.0315 250.644 11.7523 250.786 11.3333C250.998 10.9144 251.069 10.4955 251.069 10.0765V5.67773H252.415V13.6375H251.14V12.4505H251.069C250.857 12.8694 250.503 13.2185 250.007 13.4978C249.511 13.7771 249.015 13.9167 248.448 13.9167C247.527 13.9866 246.748 13.7073 246.252 13.1487Z" fill="white"/>
<path d="M256.878 13.5673C256.383 13.288 256.028 12.9389 255.745 12.52H255.674V13.7069H254.328V2.2561H255.674V5.88685L255.603 7.004H255.674C255.958 6.58507 256.312 6.23596 256.808 5.95667C257.304 5.67738 257.87 5.53774 258.508 5.53774C259.216 5.53774 259.854 5.74721 260.421 6.09632C260.987 6.44543 261.483 6.93418 261.838 7.63242C262.192 8.26082 262.333 8.95904 262.333 9.7969C262.333 10.5649 262.192 11.333 261.838 11.9614C261.483 12.5898 261.058 13.0785 260.421 13.4975C259.854 13.8466 259.216 14.0561 258.508 14.0561C257.941 13.9862 257.374 13.8466 256.878 13.5673ZM259.641 12.3803C260.066 12.101 260.35 11.7519 260.633 11.333C260.846 10.9141 260.987 10.3555 260.987 9.72708C260.987 9.09868 260.846 8.60993 260.633 8.12117C260.421 7.70224 260.066 7.28329 259.641 7.07383C259.216 6.86436 258.791 6.72472 258.295 6.72472C257.799 6.72472 257.374 6.86436 256.949 7.07383C256.524 7.28329 256.241 7.63242 255.958 8.12117C255.745 8.54011 255.603 9.09868 255.603 9.72708C255.603 10.3555 255.745 10.8442 255.958 11.333C256.17 11.8217 256.524 12.1709 256.949 12.3803C257.374 12.5898 257.799 12.7294 258.295 12.7294C258.791 12.7993 259.287 12.6596 259.641 12.3803Z" fill="white"/>
<path d="M264.387 13.3579C263.821 12.939 263.396 12.3804 263.112 11.752L264.317 11.1935C264.529 11.6822 264.813 12.1011 265.238 12.3804C265.663 12.6597 266.088 12.7994 266.513 12.7994C267.009 12.7994 267.434 12.6597 267.788 12.4503C268.142 12.2408 268.284 11.9615 268.284 11.6124C268.284 11.3331 268.142 11.0538 267.93 10.8444C267.646 10.6349 267.221 10.4952 266.654 10.2857L265.521 10.0065C264.883 9.86684 264.387 9.58756 263.962 9.23845C263.537 8.88934 263.325 8.40058 263.325 7.77218C263.325 7.28339 263.467 6.86446 263.75 6.51535C264.033 6.16624 264.387 5.88695 264.883 5.74731C265.379 5.53784 265.875 5.46802 266.442 5.46802C267.15 5.46802 267.788 5.60766 268.355 5.95677C268.921 6.30588 269.347 6.72481 269.559 7.28339L268.355 7.77218C268.213 7.35321 267.93 7.07393 267.575 6.93428C267.221 6.72481 266.796 6.65499 266.371 6.65499C265.946 6.65499 265.592 6.72481 265.238 6.93428C264.883 7.14375 264.742 7.42304 264.742 7.70236C264.742 7.98165 264.883 8.19104 265.096 8.33069C265.308 8.47033 265.663 8.61005 266.159 8.74969L267.363 9.02891C268.142 9.23838 268.78 9.51766 269.134 9.9366C269.559 10.3555 269.701 10.8444 269.701 11.4029C269.701 11.8917 269.559 12.3106 269.276 12.6597C268.992 13.0088 268.638 13.3579 268.142 13.5673C267.646 13.7768 267.08 13.9165 266.513 13.9165C265.663 13.9863 264.954 13.7769 264.387 13.3579Z" fill="white"/>
<path d="M40.3101 22.854H41.5144L43.7814 28.6492H43.8523L46.1193 22.854H47.3236V29.906H46.4735V25.4374L46.5443 24.1108H46.4735L44.1357 29.9759H43.4272L41.0894 24.1108H41.0185L41.0894 25.4374V29.906H40.2393V22.854H40.3101Z" fill="white"/>
<path d="M49.3067 29.9061C49.0233 29.7665 48.8108 29.557 48.5983 29.3475C48.4566 29.0682 48.3857 28.7889 48.3857 28.5097C48.3857 28.0209 48.5983 27.602 48.9525 27.3227C49.3776 27.0434 49.8735 26.9038 50.511 26.9038C50.7944 26.9038 51.0778 26.9037 51.3612 26.9736C51.5737 27.0434 51.7862 27.1132 51.9279 27.183V26.9038C51.9279 26.6943 51.8571 26.4848 51.7154 26.2754C51.5737 26.0659 51.432 25.9262 51.2195 25.8564C51.007 25.7866 50.7944 25.7168 50.5819 25.7168C50.0151 25.7168 49.5901 25.9262 49.3067 26.415L48.5983 25.9262C48.8108 25.647 49.0942 25.3677 49.4484 25.228C49.8026 25.0884 50.1568 24.9487 50.5819 24.9487C51.2903 24.9487 51.7862 25.1582 52.2113 25.5073C52.6364 25.8564 52.778 26.3452 52.778 26.9736V30.0457H51.9988V29.3475H51.9279C51.7862 29.6268 51.5737 29.8363 51.2903 29.9759C51.007 30.1156 50.7236 30.2552 50.3694 30.2552C49.9443 30.1156 49.5901 30.0457 49.3067 29.9061ZM51.0778 29.1381C51.2903 28.9984 51.5029 28.7889 51.6445 28.5795C51.7862 28.37 51.8571 28.0907 51.8571 27.8114C51.5029 27.602 51.0778 27.4623 50.5819 27.4623C50.1568 27.4623 49.8026 27.5321 49.5901 27.7416C49.3067 27.9511 49.2359 28.1605 49.2359 28.4398C49.2359 28.7191 49.3776 28.9286 49.5901 29.0682C49.8026 29.2079 50.086 29.3475 50.3694 29.3475C50.5819 29.3475 50.8653 29.2777 51.0778 29.1381Z" fill="white"/>
<path d="M53.9117 25.0181H54.6909V25.7861H54.7618C54.8326 25.5068 55.0452 25.2973 55.3285 25.0879C55.6119 24.8784 55.8953 24.8086 56.1787 24.8086C56.3912 24.8086 56.6037 24.8086 56.7454 24.8784V25.7861C56.5329 25.7163 56.3203 25.6465 56.037 25.6465C55.8244 25.6465 55.6119 25.7163 55.3994 25.8559C55.1868 25.9956 55.0452 26.205 54.9035 26.4145C54.7618 26.624 54.6909 26.9033 54.6909 27.1127V29.8358H53.8408V25.0181H53.9117Z" fill="white"/>
<path d="M60.0752 22.854H62.6964C63.0506 22.854 63.4048 22.9238 63.6882 23.1333C63.9716 23.3428 64.255 23.5522 64.4675 23.8315C64.68 24.1108 64.7509 24.4599 64.7509 24.809C64.7509 25.1581 64.68 25.4374 64.4675 25.7167C64.255 25.996 64.0424 26.2055 63.7591 26.2753C64.1133 26.4149 64.3966 26.6244 64.68 26.9037C64.8926 27.183 65.0342 27.5321 65.0342 27.951C65.0342 28.37 64.9634 28.6492 64.7509 28.9984C64.5383 29.2776 64.255 29.5569 63.9716 29.6966C63.6174 29.8362 63.2632 29.9759 62.9089 29.9759H60.2169V22.854H60.0752ZM62.6256 25.9262C62.8381 25.9262 63.0506 25.8564 63.2632 25.7865C63.4757 25.6469 63.6174 25.5072 63.6882 25.3676C63.7591 25.228 63.8299 25.0185 63.8299 24.809C63.8299 24.5996 63.7591 24.4599 63.6882 24.2504C63.6174 24.1108 63.4757 23.9013 63.2632 23.8315C63.0506 23.6919 62.9089 23.6919 62.6256 23.6919H60.9253V25.9262H62.6256ZM62.8381 29.138C63.0506 29.138 63.334 29.0682 63.4757 28.9285C63.6882 28.7889 63.8299 28.6492 63.9007 28.4398C63.9716 28.2303 64.0424 28.0907 64.0424 27.8812C64.0424 27.6717 63.9716 27.4623 63.9007 27.3226C63.8299 27.1132 63.6174 26.9735 63.4757 26.8339C63.334 26.6942 63.0506 26.6942 62.7672 26.6942H60.9253V29.138H62.8381Z" fill="white"/>
<path d="M66.5928 29.9061C66.3095 29.7665 66.0969 29.557 65.8844 29.3475C65.7427 29.0682 65.6719 28.7889 65.6719 28.5097C65.6719 28.0209 65.8844 27.602 66.2386 27.3227C66.6637 27.0434 67.1596 26.9038 67.7972 26.9038C68.0806 26.9038 68.3639 26.9037 68.6473 26.9736C68.8598 27.0434 69.0724 27.1132 69.214 27.183V26.9038C69.214 26.6943 69.1432 26.4848 69.0015 26.2754C68.8598 26.0659 68.7181 25.9262 68.5056 25.8564C68.2931 25.7866 68.0806 25.7168 67.868 25.7168C67.3013 25.7168 66.8762 25.9262 66.5928 26.415L65.8844 25.9262C66.0969 25.647 66.3803 25.3677 66.7345 25.228C67.0887 25.0884 67.443 24.9487 67.868 24.9487C68.5765 24.9487 69.0724 25.1582 69.4974 25.5073C69.9225 25.8564 70.0642 26.3452 70.0642 26.9736V30.0457H69.2849V29.3475H69.214C69.0724 29.6268 68.8598 29.8363 68.5765 29.9759C68.2931 30.1156 68.0097 30.2552 67.6555 30.2552C67.3013 30.2552 66.8762 30.0457 66.5928 29.9061ZM68.3639 29.1381C68.5765 28.9984 68.789 28.7889 68.9307 28.5795C69.0724 28.37 69.1432 28.0907 69.1432 27.8114C68.789 27.602 68.3639 27.4623 67.868 27.4623C67.443 27.4623 67.0887 27.5321 66.8762 27.7416C66.5928 27.9511 66.522 28.1605 66.522 28.4398C66.522 28.7191 66.6637 28.9286 66.8762 29.0682C67.0887 29.2079 67.3721 29.3475 67.6555 29.3475C67.868 29.3475 68.1514 29.2777 68.3639 29.1381Z" fill="white"/>
<path d="M71.5518 29.6961C71.1976 29.4169 70.9142 29.1376 70.7725 28.7186L71.5518 28.3695C71.6935 28.6488 71.906 28.9281 72.1186 29.0677C72.3311 29.2074 72.6145 29.347 72.8978 29.347C73.2521 29.347 73.4646 29.2772 73.6771 29.1376C73.8896 28.9979 73.9605 28.8583 73.9605 28.6488C73.9605 28.4393 73.8896 28.2997 73.748 28.1601C73.6063 28.0204 73.3229 27.9506 72.9687 27.8109L72.2602 27.6713C71.906 27.6015 71.5518 27.4618 71.2684 27.1825C70.9851 26.9731 70.8433 26.6938 70.8433 26.2749C70.8433 25.9956 70.9142 25.7163 71.1267 25.5068C71.2684 25.2973 71.5518 25.1577 71.8352 25.0181C72.1186 24.8784 72.4728 24.8784 72.827 24.8784C73.2521 24.8784 73.6771 24.9482 73.9605 25.1577C74.3147 25.3672 74.5272 25.6465 74.7398 25.9956L73.9605 26.3447C73.8188 26.1352 73.6771 25.9257 73.4646 25.7861C73.2521 25.6465 73.0395 25.6465 72.7561 25.6465C72.4728 25.6465 72.2602 25.7163 72.0477 25.8559C71.8352 25.9956 71.7643 26.1352 71.7643 26.3447C71.7643 26.4843 71.8352 26.624 71.9769 26.7636C72.1186 26.9033 72.3311 26.9731 72.6145 27.0429L73.3229 27.2524C73.8188 27.392 74.173 27.5317 74.4564 27.8109C74.6689 28.0902 74.8106 28.3695 74.8106 28.7186C74.8106 28.9979 74.7398 29.2772 74.5272 29.4867C74.3855 29.6961 74.1022 29.9056 73.8188 30.0453C73.5354 30.1849 73.1812 30.2547 72.827 30.2547C72.3311 30.1151 71.906 29.9754 71.5518 29.6961Z" fill="white"/>
<path d="M76.7234 29.766C76.3692 29.5565 76.015 29.2074 75.8025 28.8583C75.5899 28.5092 75.4482 28.0204 75.4482 27.5317C75.4482 27.0429 75.5191 26.624 75.7316 26.205C75.9441 25.7861 76.2275 25.5068 76.5817 25.2275C76.936 25.0181 77.361 24.8784 77.8569 24.8784C78.3528 24.8784 78.7779 25.0181 79.1321 25.2275C79.4863 25.437 79.7697 25.7163 79.9822 26.1352C80.1948 26.5541 80.2656 26.9731 80.2656 27.4618C80.2656 27.5317 80.2656 27.6015 80.2656 27.6713H76.2984C76.2984 28.0204 76.3692 28.3695 76.5817 28.579C76.7234 28.8583 76.936 28.9979 77.2193 29.1376C77.5027 29.2772 77.7152 29.347 77.9986 29.347C78.6362 29.347 79.1321 29.0677 79.4863 28.4393L80.2656 28.7885C80.0531 29.2074 79.7697 29.4867 79.3446 29.766C78.9196 30.0453 78.4945 30.1151 77.9986 30.1151C77.5735 30.1151 77.1485 29.9754 76.7234 29.766ZM79.4863 26.9033C79.4863 26.6938 79.4155 26.4843 79.3446 26.3447C79.2738 26.1352 79.0613 25.9956 78.8487 25.8559C78.6362 25.7163 78.3528 25.6465 77.9986 25.6465C77.6444 25.6465 77.2902 25.7861 77.0068 25.9956C76.7234 26.205 76.5817 26.5541 76.5109 26.9731H79.4863V26.9033Z" fill="white"/>
<path d="M81.3281 22.854H82.1789V29.906H81.3281V22.854Z" fill="white"/>
<path d="M83.5241 23.831C83.3824 23.6914 83.3115 23.5517 83.3115 23.4121C83.3115 23.2724 83.3824 23.1328 83.5241 22.9932C83.6657 22.8535 83.8074 22.7837 83.9491 22.7837C84.0908 22.7837 84.2325 22.8535 84.3742 22.9932C84.5159 23.1328 84.5867 23.2724 84.5867 23.4121C84.5867 23.5517 84.5159 23.6914 84.445 23.831C84.3033 23.9707 84.1616 24.0405 84.02 24.0405C83.7366 23.9707 83.5949 23.9008 83.5241 23.831ZM83.5241 25.018H84.3742V29.9055H83.5241V25.018Z" fill="white"/>
<path d="M86.5711 29.7665C86.2169 29.557 85.8626 29.2079 85.6501 28.8588C85.4376 28.4398 85.2959 28.0209 85.2959 27.5321C85.2959 27.0434 85.4376 26.6245 85.6501 26.2055C85.8626 25.7866 86.146 25.5073 86.5711 25.2978C86.9961 25.0884 87.4212 24.9487 87.9171 24.9487C88.413 24.9487 88.8381 25.0884 89.2631 25.2978C89.6882 25.5073 89.9716 25.8564 90.1841 26.2055C90.3966 26.5546 90.5383 27.0434 90.5383 27.5321C90.5383 28.0209 90.3966 28.4398 90.1841 28.8588C89.9716 29.2777 89.6882 29.557 89.2631 29.7665C88.8381 29.9759 88.413 30.1156 87.9171 30.1156C87.4212 30.1156 86.9253 29.9759 86.5711 29.7665ZM88.6964 29.0682C88.9798 28.9286 89.1923 28.7191 89.334 28.4398C89.4757 28.1605 89.5465 27.8114 89.5465 27.4623C89.5465 27.1132 89.4757 26.7641 89.334 26.4848C89.1923 26.2055 88.9798 25.9961 88.6964 25.8564C88.413 25.7168 88.1296 25.647 87.8463 25.647C87.5629 25.647 87.2795 25.7168 86.9961 25.8564C86.7128 25.9961 86.5002 26.2055 86.3586 26.4848C86.2169 26.7641 86.146 27.1132 86.146 27.4623C86.146 27.8114 86.2169 28.1605 86.3586 28.4398C86.5002 28.7191 86.7128 28.9286 86.9961 29.0682C87.2795 29.2079 87.5629 29.2777 87.8463 29.2777C88.2005 29.3475 88.4839 29.2777 88.6964 29.0682Z" fill="white"/>
<path d="M91.7422 29.6961C91.388 29.4169 91.1046 29.1376 90.9629 28.7186L91.7422 28.3695C91.8839 28.6488 92.0964 28.9281 92.3089 29.0677C92.5215 29.2074 92.8048 29.347 93.0882 29.347C93.4424 29.347 93.655 29.2772 93.8675 29.1376C94.08 28.9979 94.1509 28.8583 94.1509 28.6488C94.1509 28.4393 94.08 28.2997 93.9383 28.1601C93.7966 28.0204 93.5133 27.9506 93.159 27.8109L92.4506 27.6713C92.0964 27.6015 91.7422 27.4618 91.4588 27.1825C91.1754 26.9731 91.0337 26.6938 91.0337 26.2749C91.0337 25.9956 91.1046 25.7163 91.3171 25.5068C91.5296 25.2973 91.7422 25.1577 92.0255 25.0181C92.3089 24.8784 92.6631 24.8784 93.0174 24.8784C93.4424 24.8784 93.8675 24.9482 94.1509 25.1577C94.5051 25.3672 94.7176 25.6465 94.9301 25.9956L94.2217 26.2749C94.08 26.0654 93.9383 25.8559 93.7258 25.7163C93.5133 25.5766 93.3007 25.5766 93.0174 25.5766C92.734 25.5766 92.5215 25.6465 92.3089 25.7861C92.0964 25.9257 92.0255 26.0654 92.0255 26.2749C92.0255 26.4145 92.0964 26.5541 92.2381 26.6938C92.3798 26.8334 92.5923 26.9033 92.8757 26.9731L93.5841 27.1825C94.08 27.3222 94.4342 27.4618 94.7176 27.7411C94.9301 28.0204 95.0718 28.2997 95.0718 28.6488C95.0718 28.9281 95.001 29.2074 94.7885 29.4169C94.6468 29.6263 94.3634 29.8358 94.08 29.9754C93.7966 30.1151 93.4424 30.1849 93.0882 30.1849C92.5923 30.1151 92.0964 29.9754 91.7422 29.6961Z" fill="white"/>
<path d="M99.7472 29.6267C99.1805 29.2776 98.7554 28.8587 98.4012 28.3001C98.047 27.7415 97.9053 27.1131 97.9053 26.4149C97.9053 25.7167 98.047 25.0883 98.4012 24.5297C98.7554 23.9712 99.1805 23.5522 99.7472 23.2031C100.314 22.854 100.952 22.7144 101.66 22.7144C102.227 22.7144 102.723 22.7842 103.148 22.9936C103.573 23.2031 103.998 23.4824 104.281 23.8315L103.714 24.3901C103.431 24.041 103.148 23.8315 102.793 23.6919C102.439 23.5522 102.085 23.4824 101.66 23.4824C101.164 23.4824 100.668 23.622 100.243 23.8315C99.818 24.041 99.4638 24.3901 99.1805 24.8788C98.8971 25.3676 98.8262 25.8564 98.8262 26.4149C98.8262 26.9735 98.9679 27.4623 99.1805 27.951C99.4638 28.3699 99.818 28.7191 100.243 28.9983C100.668 29.2078 101.164 29.3475 101.66 29.3475C102.51 29.3475 103.289 28.9983 103.856 28.3001L104.494 28.8587C104.139 29.2776 103.785 29.5569 103.289 29.7664C102.793 29.9759 102.298 30.1155 101.66 30.1155C100.952 30.1155 100.314 29.906 99.7472 29.6267Z" fill="white"/>
<path d="M106.265 29.7665C105.911 29.557 105.557 29.2079 105.344 28.8588C105.132 28.4398 104.99 28.0209 104.99 27.5321C104.99 27.0434 105.132 26.6245 105.344 26.2055C105.557 25.7866 105.84 25.5073 106.265 25.2978C106.69 25.0884 107.116 24.9487 107.611 24.9487C108.107 24.9487 108.532 25.0884 108.957 25.2978C109.383 25.5073 109.666 25.8564 109.878 26.2055C110.091 26.5546 110.233 27.0434 110.233 27.5321C110.233 28.0209 110.091 28.4398 109.878 28.8588C109.666 29.2777 109.383 29.557 108.957 29.7665C108.532 29.9759 108.107 30.1156 107.611 30.1156C107.116 30.1156 106.62 29.9759 106.265 29.7665ZM108.391 29.0682C108.674 28.9286 108.887 28.7191 109.028 28.4398C109.17 28.1605 109.241 27.8114 109.241 27.4623C109.241 27.1132 109.17 26.7641 109.028 26.4848C108.887 26.2055 108.674 25.9961 108.391 25.8564C108.107 25.7168 107.824 25.647 107.541 25.647C107.257 25.647 106.974 25.7168 106.69 25.8564C106.407 25.9961 106.195 26.2055 106.053 26.4848C105.911 26.7641 105.84 27.1132 105.84 27.4623C105.84 27.8114 105.911 28.1605 106.053 28.4398C106.195 28.7191 106.407 28.9286 106.69 29.0682C106.974 29.2079 107.257 29.2777 107.541 29.2777C107.895 29.3475 108.178 29.2777 108.391 29.0682Z" fill="white"/>
<path d="M111.012 22.854H111.863V29.906H111.012V22.854Z" fill="white"/>
<path d="M113.137 22.854H113.988V29.906H113.137V22.854Z" fill="white"/>
<path d="M116.112 29.766C115.758 29.5565 115.404 29.2074 115.191 28.8583C114.979 28.5092 114.837 28.0204 114.837 27.5317C114.837 27.0429 114.908 26.624 115.12 26.205C115.333 25.7861 115.616 25.5068 115.97 25.2275C116.325 25.0181 116.75 24.8784 117.246 24.8784C117.741 24.8784 118.167 25.0181 118.521 25.2275C118.875 25.437 119.158 25.7163 119.371 26.1352C119.583 26.5541 119.654 26.9731 119.654 27.4618C119.654 27.5317 119.654 27.6015 119.654 27.6713H115.687C115.687 28.0204 115.758 28.3695 115.97 28.579C116.112 28.8583 116.325 28.9979 116.608 29.1376C116.891 29.2772 117.104 29.347 117.387 29.347C118.025 29.347 118.521 29.0677 118.875 28.4393L119.654 28.7885C119.442 29.2074 119.158 29.4867 118.733 29.766C118.379 29.9754 117.883 30.1151 117.387 30.1151C116.891 30.1151 116.466 29.9754 116.112 29.766ZM118.804 26.9033C118.804 26.6938 118.733 26.4843 118.662 26.3447C118.592 26.1352 118.379 25.9956 118.167 25.8559C117.954 25.7163 117.671 25.6465 117.316 25.6465C116.962 25.6465 116.608 25.7861 116.325 25.9956C116.041 26.205 115.9 26.5541 115.829 26.9731H118.804V26.9033Z" fill="white"/>
<path d="M121.426 31.7908C121.072 31.5115 120.788 31.1624 120.647 30.8133L121.426 30.4642C121.497 30.7435 121.709 31.0228 121.993 31.1624C122.276 31.3021 122.559 31.4417 122.914 31.4417C123.41 31.4417 123.835 31.302 124.118 31.0227C124.401 30.7435 124.543 30.3245 124.543 29.766V29.2771H124.472C124.331 29.5564 124.047 29.766 123.764 29.9056C123.48 30.0453 123.126 30.1848 122.772 30.1848C122.347 30.1848 121.993 30.0452 121.568 29.8357C121.213 29.6263 120.93 29.2771 120.717 28.928C120.505 28.5091 120.363 28.0902 120.363 27.6015C120.363 27.1127 120.505 26.6938 120.717 26.2749C120.93 25.8559 121.213 25.5766 121.568 25.3672C121.922 25.1577 122.347 25.0181 122.772 25.0181C123.126 25.0181 123.48 25.0878 123.764 25.2973C124.047 25.4369 124.331 25.6465 124.472 25.9258H124.543V25.2275H125.322V29.766C125.322 30.3245 125.181 30.7435 124.968 31.1624C124.756 31.5813 124.472 31.7907 124.118 32.0002C123.764 32.2097 123.339 32.2795 122.843 32.2795C122.347 32.2097 121.851 32.0701 121.426 31.7908ZM123.764 29.1375C123.976 28.9979 124.189 28.7885 124.331 28.5092C124.472 28.2299 124.543 27.8807 124.543 27.5316C124.543 27.1825 124.472 26.8334 124.331 26.5542C124.189 26.2749 123.976 26.0654 123.764 25.9258C123.551 25.7861 123.268 25.7163 122.985 25.7163C122.701 25.7163 122.418 25.7861 122.205 25.9258C121.993 26.0654 121.78 26.2749 121.638 26.5542C121.497 26.8334 121.426 27.1825 121.426 27.5316C121.426 27.8807 121.497 28.2299 121.638 28.5092C121.78 28.7885 121.993 28.9979 122.205 29.1375C122.418 29.2771 122.701 29.347 122.985 29.347C123.268 29.347 123.551 29.2771 123.764 29.1375Z" fill="white"/>
<path d="M127.518 29.766C127.164 29.5565 126.81 29.2074 126.597 28.8583C126.385 28.5092 126.243 28.0204 126.243 27.5317C126.243 27.0429 126.314 26.624 126.527 26.205C126.739 25.7861 127.022 25.5068 127.377 25.2275C127.731 25.0181 128.156 24.8784 128.652 24.8784C129.148 24.8784 129.573 25.0181 129.927 25.2275C130.281 25.437 130.565 25.7163 130.777 26.1352C130.99 26.5541 131.061 26.9731 131.061 27.4618C131.061 27.5317 131.061 27.6015 131.061 27.6713H127.093C127.093 28.0204 127.164 28.3695 127.377 28.579C127.518 28.8583 127.731 28.9979 128.014 29.1376C128.298 29.2772 128.51 29.347 128.794 29.347C129.431 29.347 129.927 29.0677 130.281 28.4393L131.061 28.7885C130.848 29.2074 130.565 29.4867 130.14 29.766C129.785 29.9754 129.289 30.1151 128.794 30.1151C128.298 30.1151 127.873 29.9754 127.518 29.766ZM130.21 26.9033C130.21 26.6938 130.14 26.4843 130.069 26.3447C129.998 26.1352 129.785 25.9956 129.573 25.8559C129.36 25.7163 129.077 25.6465 128.723 25.6465C128.368 25.6465 128.014 25.7861 127.731 25.9956C127.448 26.205 127.306 26.5541 127.235 26.9731H130.21V26.9033Z" fill="white"/>
<path d="M135.382 29.7665C135.027 29.557 134.673 29.2079 134.461 28.8588C134.248 28.4398 134.106 28.0209 134.106 27.5321C134.106 27.0434 134.248 26.6245 134.461 26.2055C134.673 25.7866 134.957 25.5073 135.382 25.2978C135.807 25.0884 136.232 24.9487 136.728 24.9487C137.224 24.9487 137.649 25.0884 138.074 25.2978C138.499 25.5073 138.782 25.8564 138.995 26.2055C139.207 26.5546 139.349 27.0434 139.349 27.5321C139.349 28.0209 139.207 28.4398 138.995 28.8588C138.782 29.2777 138.499 29.557 138.074 29.7665C137.649 29.9759 137.224 30.1156 136.728 30.1156C136.232 30.1156 135.736 29.9759 135.382 29.7665ZM137.507 29.0682C137.79 28.9286 138.003 28.7191 138.145 28.4398C138.286 28.1605 138.357 27.8114 138.357 27.4623C138.357 27.1132 138.286 26.7641 138.145 26.4848C138.003 26.2055 137.79 25.9961 137.507 25.8564C137.224 25.7168 136.94 25.647 136.657 25.647C136.373 25.647 136.09 25.7168 135.807 25.8564C135.523 25.9961 135.311 26.2055 135.169 26.4848C135.027 26.7641 134.957 27.1132 134.957 27.4623C134.957 27.8114 135.027 28.1605 135.169 28.4398C135.311 28.7191 135.523 28.9286 135.807 29.0682C136.09 29.2079 136.373 29.2777 136.657 29.2777C137.011 29.3475 137.294 29.2777 137.507 29.0682Z" fill="white"/>
<path d="M140.624 25.7865H139.703V25.0185H140.624V24.3203C140.624 23.9712 140.695 23.7617 140.837 23.4824C140.978 23.2729 141.191 23.0635 141.403 22.9238C141.616 22.7842 141.899 22.7144 142.253 22.7144C142.395 22.7144 142.537 22.7144 142.679 22.7144C142.82 22.7144 142.891 22.7842 143.033 22.7842V23.622C142.82 23.4824 142.608 23.4824 142.324 23.4824C142.112 23.4824 141.899 23.5522 141.758 23.6919C141.616 23.8315 141.545 24.041 141.545 24.3203V24.8788H142.82V25.6469H141.545V29.7664H140.695V25.7865H140.624Z" fill="white"/>
<path d="M146.292 22.854H150.472V23.622H147.142V25.996H150.118V26.764H147.142V29.138H150.472V29.906H146.292V22.854Z" fill="white"/>
<path d="M151.534 25.0181H152.313V25.7163H152.384C152.526 25.437 152.739 25.2275 153.022 25.0879C153.305 24.9482 153.659 24.8086 154.014 24.8086C154.651 24.8086 155.076 25.0181 155.431 25.3672C155.714 25.7163 155.926 26.205 155.926 26.8334V29.9056H155.076V26.9731C155.076 26.0654 154.651 25.6465 153.801 25.6465C153.518 25.6465 153.305 25.7163 153.093 25.8559C152.88 25.9956 152.739 26.205 152.597 26.4145C152.455 26.624 152.455 26.9033 152.455 27.1825V29.9056H151.605V25.0181H151.534Z" fill="white"/>
<path d="M157.698 31.7908C157.344 31.5115 157.06 31.1624 156.919 30.8133L157.698 30.4642C157.769 30.7435 157.981 31.0228 158.265 31.1624C158.548 31.3719 158.831 31.4417 159.186 31.4417C159.681 31.4417 160.107 31.302 160.39 31.0227C160.673 30.7435 160.815 30.3245 160.815 29.766V29.2771C160.673 29.5564 160.39 29.766 160.107 29.9056C159.823 30.0453 159.469 30.1848 159.115 30.1848C158.69 30.1848 158.335 30.0452 157.91 29.8357C157.556 29.6263 157.273 29.2771 157.06 28.928C156.848 28.5091 156.706 28.0902 156.706 27.6015C156.706 27.1127 156.848 26.6938 157.06 26.2749C157.273 25.8559 157.556 25.5766 157.91 25.3672C158.265 25.1577 158.69 25.0181 159.115 25.0181C159.469 25.0181 159.823 25.0878 160.107 25.2973C160.39 25.4369 160.673 25.6465 160.815 25.9258H160.886V25.2275H161.665V29.766C161.665 30.3245 161.523 30.7435 161.311 31.1624C161.098 31.5813 160.815 31.7907 160.461 32.0002C160.107 32.2097 159.681 32.2795 159.186 32.2795C158.619 32.2097 158.123 32.0701 157.698 31.7908ZM160.036 29.1375C160.248 28.9979 160.461 28.7885 160.602 28.5092C160.744 28.2299 160.815 27.8807 160.815 27.5316C160.815 27.1825 160.744 26.8334 160.602 26.5542C160.461 26.2749 160.248 26.0654 160.036 25.9258C159.823 25.7861 159.54 25.7163 159.256 25.7163C158.973 25.7163 158.69 25.7861 158.477 25.9258C158.265 26.0654 158.052 26.2749 157.91 26.5542C157.769 26.8334 157.698 27.1825 157.698 27.5316C157.698 27.8807 157.769 28.2299 157.91 28.5092C158.052 28.7885 158.265 28.9979 158.477 29.1375C158.69 29.2771 158.973 29.347 159.256 29.347C159.54 29.347 159.752 29.2771 160.036 29.1375Z" fill="white"/>
<path d="M163.01 23.831C162.869 23.6914 162.798 23.5517 162.798 23.4121C162.798 23.2724 162.869 23.1328 163.01 22.9932C163.152 22.8535 163.294 22.7837 163.435 22.7837C163.577 22.7837 163.719 22.8535 163.861 22.9932C164.002 23.1328 164.073 23.2724 164.073 23.4121C164.073 23.5517 164.002 23.6914 163.931 23.831C163.79 23.9707 163.648 24.0405 163.506 24.0405C163.223 23.9707 163.081 23.9008 163.01 23.831ZM163.01 25.018H163.861V29.9055H163.01V25.018Z" fill="white"/>
<path d="M165.136 25.0181H165.915V25.7163H165.986C166.128 25.437 166.34 25.2275 166.623 25.0879C166.907 24.9482 167.261 24.8086 167.615 24.8086C168.253 24.8086 168.678 25.0181 169.032 25.3672C169.316 25.7163 169.528 26.205 169.528 26.8334V29.9056H168.678V26.9731C168.678 26.0654 168.253 25.6465 167.403 25.6465C167.119 25.6465 166.907 25.7163 166.694 25.8559C166.482 25.9956 166.34 26.205 166.198 26.4145C166.057 26.624 166.057 26.9033 166.057 27.1825V29.9056H165.207V25.0181H165.136Z" fill="white"/>
<path d="M171.654 29.766C171.3 29.5565 170.946 29.2074 170.733 28.8583C170.521 28.5092 170.379 28.0204 170.379 27.5317C170.379 27.0429 170.45 26.624 170.662 26.205C170.875 25.7861 171.158 25.5068 171.512 25.2275C171.867 25.0181 172.292 24.8784 172.788 24.8784C173.283 24.8784 173.709 25.0181 174.063 25.2275C174.417 25.437 174.7 25.7163 174.913 26.1352C175.125 26.5541 175.196 26.9731 175.196 27.4618C175.196 27.5317 175.196 27.6015 175.196 27.6713H171.229C171.229 28.0204 171.3 28.3695 171.512 28.579C171.654 28.8583 171.867 28.9979 172.15 29.1376C172.433 29.2772 172.646 29.347 172.929 29.347C173.567 29.347 174.063 29.0677 174.417 28.4393L175.196 28.7885C174.984 29.2074 174.7 29.4867 174.275 29.766C173.921 29.9754 173.425 30.1151 172.929 30.1151C172.433 30.1151 172.008 29.9754 171.654 29.766ZM174.346 26.9033C174.346 26.6938 174.275 26.4843 174.204 26.3447C174.134 26.1352 173.921 25.9956 173.709 25.8559C173.496 25.7163 173.213 25.6465 172.858 25.6465C172.504 25.6465 172.15 25.7861 171.867 25.9956C171.583 26.205 171.442 26.5541 171.371 26.9731H174.346V26.9033Z" fill="white"/>
<path d="M177.179 29.766C176.825 29.5565 176.471 29.2074 176.259 28.8583C176.046 28.5092 175.904 28.0204 175.904 27.5317C175.904 27.0429 175.975 26.624 176.188 26.205C176.4 25.7861 176.684 25.5068 177.038 25.2275C177.392 25.0181 177.817 24.8784 178.313 24.8784C178.809 24.8784 179.234 25.0181 179.588 25.2275C179.942 25.437 180.226 25.7163 180.438 26.1352C180.651 26.5541 180.722 26.9731 180.722 27.4618C180.722 27.5317 180.722 27.6015 180.722 27.6713H176.754C176.754 28.0204 176.825 28.3695 177.038 28.579C177.179 28.8583 177.392 28.9979 177.675 29.1376C177.959 29.2772 178.171 29.347 178.455 29.347C179.092 29.347 179.588 29.0677 179.942 28.4393L180.722 28.7885C180.509 29.2074 180.226 29.4867 179.801 29.766C179.376 30.0453 178.951 30.1151 178.455 30.1151C178.03 30.1151 177.605 29.9754 177.179 29.766ZM179.942 26.9033C179.942 26.6938 179.872 26.4843 179.801 26.3447C179.73 26.1352 179.517 25.9956 179.305 25.8559C179.092 25.7163 178.809 25.6465 178.455 25.6465C178.1 25.6465 177.746 25.7861 177.463 25.9956C177.179 26.205 177.038 26.5541 176.967 26.9731H179.942V26.9033Z" fill="white"/>
<path d="M181.785 25.0181H182.564V25.7861H182.635C182.706 25.5068 182.918 25.2973 183.202 25.0879C183.485 24.8784 183.768 24.8086 184.052 24.8086C184.264 24.8086 184.477 24.8086 184.618 24.8784V25.7861C184.406 25.7163 184.193 25.6465 183.91 25.6465C183.697 25.6465 183.485 25.7163 183.272 25.8559C183.06 25.9956 182.918 26.205 182.777 26.4145C182.635 26.624 182.564 26.9033 182.564 27.1127V29.8358H181.714V25.0181H181.785Z" fill="white"/>
<path d="M185.539 23.831C185.397 23.6914 185.326 23.5517 185.326 23.4121C185.326 23.2724 185.397 23.1328 185.539 22.9932C185.68 22.8535 185.822 22.7837 185.964 22.7837C186.105 22.7837 186.247 22.8535 186.389 22.9932C186.531 23.1328 186.601 23.2724 186.601 23.4121C186.601 23.5517 186.531 23.6914 186.46 23.831C186.389 23.9707 186.176 24.0405 186.035 24.0405C185.751 23.9707 185.61 23.9008 185.539 23.831ZM185.539 25.018H186.389V29.9055H185.539V25.018Z" fill="white"/>
<path d="M187.664 25.0181H188.443V25.7163H188.514C188.656 25.437 188.868 25.2275 189.152 25.0879C189.435 24.9482 189.789 24.8086 190.144 24.8086C190.781 24.8086 191.206 25.0181 191.56 25.3672C191.915 25.7163 192.056 26.205 192.056 26.8334V29.9056H191.206V26.9731C191.206 26.0654 190.781 25.6465 189.931 25.6465C189.648 25.6465 189.435 25.7163 189.223 25.8559C189.01 25.9956 188.868 26.205 188.727 26.4145C188.585 26.624 188.585 26.9033 188.585 27.1825V29.9056H187.735V25.0181H187.664Z" fill="white"/>
<path d="M193.899 31.7908C193.544 31.5115 193.261 31.1624 193.119 30.8133L193.899 30.4642C193.969 30.7435 194.182 31.0228 194.465 31.1624C194.749 31.3021 195.032 31.4417 195.386 31.4417C195.882 31.4417 196.307 31.302 196.591 31.0227C196.874 30.7435 197.016 30.3245 197.016 29.766V29.2771H196.945C196.803 29.5564 196.52 29.766 196.236 29.9056C195.953 30.0453 195.599 30.1848 195.245 30.1848C194.82 30.1848 194.465 30.0452 194.04 29.8357C193.686 29.6263 193.403 29.2771 193.19 28.928C192.978 28.5091 192.836 28.0902 192.836 27.6015C192.836 27.1127 192.978 26.6938 193.19 26.2749C193.403 25.8559 193.686 25.5766 194.04 25.3672C194.394 25.1577 194.82 25.0181 195.245 25.0181C195.599 25.0181 195.953 25.0878 196.236 25.2973C196.52 25.4369 196.803 25.6465 196.945 25.9258H197.016V25.2275H197.795V29.766C197.795 30.3245 197.653 30.7435 197.441 31.1624C197.228 31.5813 196.945 31.7907 196.591 32.0002C196.236 32.2097 195.811 32.2795 195.315 32.2795C194.749 32.2097 194.253 32.0701 193.899 31.7908ZM196.236 29.1375C196.449 28.9979 196.661 28.7885 196.803 28.5092C196.945 28.2299 197.016 27.8807 197.016 27.5316C197.016 27.1825 196.945 26.8334 196.803 26.5542C196.661 26.2749 196.449 26.0654 196.236 25.9258C196.024 25.7861 195.741 25.7163 195.457 25.7163C195.174 25.7163 194.89 25.7861 194.678 25.9258C194.465 26.0654 194.253 26.2749 194.111 26.5542C193.969 26.8334 193.899 27.1825 193.899 27.5316C193.899 27.8807 193.969 28.2299 194.111 28.5092C194.253 28.7885 194.465 28.9979 194.678 29.1375C194.89 29.2771 195.174 29.347 195.457 29.347C195.741 29.347 195.953 29.2771 196.236 29.1375Z" fill="white"/>
<path d="M202.046 29.9061C201.763 29.7665 201.55 29.557 201.338 29.3475C201.196 29.0682 201.125 28.7889 201.125 28.5097C201.125 28.0209 201.338 27.602 201.692 27.3227C202.117 27.0434 202.613 26.9038 203.25 26.9038C203.534 26.9038 203.817 26.9037 204.1 26.9736C204.313 27.0434 204.526 27.1132 204.667 27.183V26.9038C204.667 26.6943 204.596 26.4848 204.455 26.2754C204.313 26.0659 204.171 25.9262 203.959 25.8564C203.746 25.7866 203.534 25.7168 203.321 25.7168C202.754 25.7168 202.329 25.9262 202.046 26.415L201.338 25.9262C201.55 25.647 201.833 25.3677 202.188 25.228C202.542 25.0884 202.896 24.9487 203.321 24.9487C204.03 24.9487 204.525 25.1582 204.951 25.5073C205.376 25.8564 205.517 26.3452 205.517 26.9736V30.0457H204.738V29.3475H204.667C204.526 29.6268 204.313 29.8363 204.03 29.9759C203.746 30.1156 203.463 30.2552 203.109 30.2552C202.754 30.2552 202.329 30.0457 202.046 29.9061ZM203.888 29.1381C204.1 28.9984 204.313 28.7889 204.455 28.5795C204.596 28.37 204.667 28.0907 204.667 27.8114C204.313 27.602 203.888 27.4623 203.392 27.4623C202.967 27.4623 202.613 27.5321 202.4 27.7416C202.117 27.9511 202.046 28.1605 202.046 28.4398C202.046 28.7191 202.188 28.9286 202.4 29.0682C202.613 29.2079 202.896 29.3475 203.179 29.3475C203.392 29.3475 203.605 29.2777 203.888 29.1381Z" fill="white"/>
<path d="M206.65 25.0181H207.43V25.7163H207.5C207.642 25.437 207.855 25.2275 208.138 25.0879C208.421 24.9482 208.776 24.8086 209.13 24.8086C209.768 24.8086 210.193 25.0181 210.547 25.3672C210.901 25.7163 211.043 26.205 211.043 26.8334V29.9056H210.193V26.9731C210.193 26.0654 209.767 25.6465 208.917 25.6465C208.634 25.6465 208.421 25.7163 208.209 25.8559C207.996 25.9956 207.855 26.205 207.713 26.4145C207.571 26.624 207.571 26.9033 207.571 27.1825V29.9056H206.721V25.0181H206.65Z" fill="white"/>
<path d="M213.097 29.7664C212.743 29.5569 212.459 29.2078 212.247 28.8587C212.034 28.4398 211.893 28.0208 211.893 27.532C211.893 27.0433 212.034 26.6244 212.247 26.2055C212.459 25.7865 212.743 25.5072 213.097 25.2977C213.451 25.0882 213.876 24.9486 214.301 24.9486C214.655 24.9486 215.01 25.0185 215.364 25.228C215.647 25.3676 215.931 25.5771 216.072 25.8564H216.143L216.072 25.1581V22.9238H216.922V29.9758H216.072V29.2776H216.001C215.86 29.5569 215.647 29.7664 215.293 29.906C215.01 30.0457 214.655 30.1853 214.23 30.1853C213.876 30.1154 213.451 29.9759 213.097 29.7664ZM215.222 29.1379C215.506 28.9983 215.647 28.7889 215.789 28.5096C215.931 28.2303 216.001 27.8811 216.001 27.532C216.001 27.1829 215.931 26.8339 215.789 26.5546C215.647 26.2753 215.435 26.0658 215.222 25.9262C214.939 25.7865 214.726 25.7167 214.372 25.7167C214.018 25.7167 213.805 25.7865 213.522 25.9262C213.239 26.0658 213.097 26.2753 212.955 26.5546C212.814 26.8339 212.743 27.1829 212.743 27.532C212.743 27.8811 212.814 28.2303 212.955 28.5096C213.097 28.7889 213.309 28.9983 213.522 29.1379C213.805 29.2776 214.018 29.3475 214.372 29.3475C214.726 29.3475 215.01 29.2776 215.222 29.1379Z" fill="white"/>
<path d="M221.669 23.622H219.686V22.854H224.574V23.622H222.59V29.906H221.74V23.622H221.669Z" fill="white"/>
<path d="M225.566 29.766C225.212 29.5565 224.858 29.2074 224.645 28.8583C224.433 28.5092 224.291 28.0204 224.291 27.5317C224.291 27.0429 224.362 26.624 224.574 26.205C224.787 25.7861 225.07 25.5068 225.425 25.2275C225.779 25.0181 226.204 24.8784 226.7 24.8784C227.196 24.8784 227.621 25.0181 227.975 25.2275C228.329 25.437 228.612 25.7163 228.825 26.1352C229.038 26.5541 229.108 26.9731 229.108 27.4618C229.108 27.5317 229.108 27.6015 229.108 27.6713H225.141C225.141 28.0204 225.212 28.3695 225.425 28.579C225.566 28.8583 225.779 28.9979 226.062 29.1376C226.345 29.2772 226.558 29.347 226.841 29.347C227.479 29.347 227.975 29.0677 228.329 28.4393L229.108 28.7885C228.896 29.2074 228.612 29.4867 228.187 29.766C227.833 29.9754 227.337 30.1151 226.841 30.1151C226.345 30.1151 225.92 29.9754 225.566 29.766ZM228.258 26.9033C228.258 26.6938 228.187 26.4843 228.117 26.3447C228.046 26.1352 227.833 25.9956 227.621 25.8559C227.408 25.7163 227.125 25.6465 226.771 25.6465C226.416 25.6465 226.062 25.7861 225.779 25.9956C225.495 26.205 225.354 26.5541 225.283 26.9731H228.258V26.9033Z" fill="white"/>
<path d="M231.163 29.7665C230.809 29.557 230.454 29.2079 230.242 28.8588C230.029 28.4398 229.888 28.0209 229.888 27.5321C229.888 27.0434 230.029 26.6245 230.242 26.2055C230.454 25.7866 230.738 25.5073 231.163 25.2978C231.588 25.0884 232.013 24.9487 232.438 24.9487C233.005 24.9487 233.43 25.0884 233.784 25.3677C234.138 25.647 234.422 25.9262 234.563 26.3452L233.784 26.6943C233.501 26.0659 233.005 25.7168 232.367 25.7168C232.084 25.7168 231.8 25.7866 231.588 25.9262C231.305 26.0659 231.163 26.2754 230.95 26.5546C230.809 26.8339 230.738 27.183 230.738 27.5321C230.738 27.8813 230.809 28.2304 230.95 28.5097C231.092 28.7889 231.305 28.9984 231.588 29.1381C231.871 29.2777 232.084 29.3475 232.367 29.3475C232.721 29.3475 233.005 29.2777 233.288 29.0682C233.572 28.8588 233.713 28.6493 233.855 28.37L234.634 28.7191C234.493 29.1381 234.209 29.4872 233.855 29.6966C233.501 29.9061 233.005 30.1156 232.509 30.1156C231.942 30.1156 231.517 29.9759 231.163 29.7665Z" fill="white"/>
<path d="M235.555 22.854H236.405V25.0883L236.334 25.7865H236.405C236.547 25.5072 236.759 25.2978 237.042 25.1581C237.326 25.0185 237.68 24.8788 238.034 24.8788C238.672 24.8788 239.097 25.0883 239.451 25.4374C239.805 25.7865 239.947 26.2753 239.947 26.8339V29.906H239.097V26.9735C239.097 26.4848 238.955 26.2055 238.743 25.996C238.53 25.7865 238.247 25.6469 237.822 25.6469C237.538 25.6469 237.326 25.7167 237.113 25.8564C236.901 25.996 236.759 26.2055 236.617 26.4848C236.476 26.764 236.405 26.9735 236.405 27.2528V29.906H235.555V22.854Z" fill="white"/>
<path d="M241.08 25.0181H241.859V25.7163H241.93C242.072 25.437 242.284 25.2275 242.568 25.0879C242.851 24.9482 243.205 24.8086 243.56 24.8086C244.197 24.8086 244.622 25.0181 244.976 25.3672C245.26 25.7163 245.472 26.205 245.472 26.8334V29.9056H244.622V26.9731C244.622 26.0654 244.197 25.6465 243.347 25.6465C243.064 25.6465 242.851 25.7163 242.639 25.8559C242.426 25.9956 242.284 26.205 242.143 26.4145C242.001 26.624 242.001 26.9033 242.001 27.1825V29.9056H241.151V25.0181H241.08Z" fill="white"/>
<path d="M247.598 29.7665C247.244 29.557 246.89 29.2079 246.677 28.8588C246.465 28.4398 246.323 28.0209 246.323 27.5321C246.323 27.0434 246.465 26.6245 246.677 26.2055C246.89 25.7866 247.173 25.5073 247.598 25.2978C248.023 25.0884 248.449 24.9487 248.944 24.9487C249.44 24.9487 249.865 25.0884 250.29 25.2978C250.716 25.5073 250.999 25.8564 251.211 26.2055C251.424 26.5546 251.566 27.0434 251.566 27.5321C251.566 28.0209 251.424 28.4398 251.211 28.8588C250.999 29.2777 250.716 29.557 250.29 29.7665C249.865 29.9759 249.44 30.1156 248.944 30.1156C248.449 30.1156 247.953 29.9759 247.598 29.7665ZM249.724 29.0682C250.007 28.9286 250.22 28.7191 250.361 28.4398C250.503 28.1605 250.574 27.8114 250.574 27.4623C250.574 27.1132 250.503 26.7641 250.361 26.4848C250.22 26.2055 250.007 25.9961 249.724 25.8564C249.44 25.7168 249.157 25.647 248.874 25.647C248.59 25.647 248.307 25.7168 248.023 25.8564C247.74 25.9961 247.528 26.2055 247.386 26.4848C247.244 26.7641 247.173 27.1132 247.173 27.4623C247.173 27.8114 247.244 28.1605 247.386 28.4398C247.528 28.7191 247.74 28.9286 248.023 29.0682C248.307 29.2079 248.59 29.2777 248.874 29.2777C249.228 29.3475 249.511 29.2777 249.724 29.0682Z" fill="white"/>
<path d="M252.345 22.854H253.196V29.906H252.345V22.854Z" fill="white"/>
<path d="M255.391 29.7665C255.037 29.557 254.683 29.2079 254.47 28.8588C254.258 28.4398 254.116 28.0209 254.116 27.5321C254.116 27.0434 254.258 26.6245 254.47 26.2055C254.683 25.7866 254.966 25.5073 255.391 25.2978C255.816 25.0884 256.242 24.9487 256.737 24.9487C257.233 24.9487 257.658 25.0884 258.083 25.2978C258.508 25.5073 258.792 25.8564 259.004 26.2055C259.217 26.5546 259.359 27.0434 259.359 27.5321C259.359 28.0209 259.217 28.4398 259.004 28.8588C258.792 29.2777 258.508 29.557 258.083 29.7665C257.658 29.9759 257.233 30.1156 256.737 30.1156C256.242 30.1156 255.746 29.9759 255.391 29.7665ZM257.517 29.0682C257.8 28.9286 258.013 28.7191 258.154 28.4398C258.296 28.1605 258.367 27.8114 258.367 27.4623C258.367 27.1132 258.296 26.7641 258.154 26.4848C258.013 26.2055 257.8 25.9961 257.517 25.8564C257.233 25.7168 256.95 25.647 256.667 25.647C256.383 25.647 256.1 25.7168 255.816 25.8564C255.533 25.9961 255.321 26.2055 255.179 26.4848C255.037 26.7641 254.966 27.1132 254.966 27.4623C254.966 27.8114 255.037 28.1605 255.179 28.4398C255.321 28.7191 255.533 28.9286 255.816 29.0682C256.1 29.2079 256.383 29.2777 256.667 29.2777C256.95 29.3475 257.233 29.2777 257.517 29.0682Z" fill="white"/>
<path d="M260.916 31.7908C260.562 31.5115 260.279 31.1624 260.137 30.8133L260.916 30.4642C260.987 30.7435 261.2 31.0228 261.483 31.1624C261.766 31.3719 262.05 31.4417 262.404 31.4417C262.9 31.4417 263.325 31.302 263.608 31.0227C263.892 30.7435 264.033 30.3245 264.033 29.766V29.2771H263.962C263.821 29.5564 263.537 29.766 263.254 29.9056C262.971 30.0453 262.616 30.1848 262.262 30.1848C261.837 30.1848 261.483 30.0452 261.058 29.8357C260.704 29.6263 260.42 29.2771 260.208 28.928C259.995 28.5091 259.854 28.0902 259.854 27.6015C259.854 27.1127 259.995 26.6938 260.208 26.2749C260.42 25.8559 260.704 25.5766 261.058 25.3672C261.412 25.1577 261.837 25.0181 262.262 25.0181C262.616 25.0181 262.971 25.0878 263.254 25.2973C263.537 25.4369 263.821 25.6465 263.962 25.9258H264.033V25.2275H264.813V29.766C264.813 30.3245 264.671 30.7435 264.458 31.1624C264.246 31.5813 263.962 31.7907 263.608 32.0002C263.254 32.2097 262.829 32.2795 262.333 32.2795C261.766 32.2097 261.27 32.0701 260.916 31.7908ZM263.183 29.1375C263.396 28.9979 263.608 28.7885 263.75 28.5092C263.892 28.2299 263.962 27.8807 263.962 27.5316C263.962 27.1825 263.892 26.8334 263.75 26.5542C263.608 26.2749 263.396 26.0654 263.183 25.9258C262.971 25.7861 262.687 25.7163 262.404 25.7163C262.121 25.7163 261.837 25.7861 261.625 25.9258C261.412 26.0654 261.2 26.2749 261.058 26.5542C260.916 26.8334 260.845 27.1825 260.845 27.5316C260.845 27.8807 260.916 28.2299 261.058 28.5092C261.2 28.7885 261.412 28.9979 261.625 29.1375C261.837 29.2771 262.121 29.347 262.404 29.347C262.687 29.347 262.971 29.2771 263.183 29.1375Z" fill="white"/>
<path d="M267.576 29.6263L265.521 25.0181H266.442L268.001 28.6488L269.489 25.0181H270.41L267.293 32.0701H266.442L267.576 29.6263Z" fill="white"/>
</g>
<defs>
<clipPath id="clip0_388_5088">
<rect width="270.622" height="32.1182" fill="white" transform="translate(0 0.440918)"/>
</clipPath>
</defs>
</svg>
