<svg width="53" height="52" viewBox="0 0 53 52" fill="none" xmlns="http://www.w3.org/2000/svg">
<path fill-rule="evenodd" clip-rule="evenodd" d="M34.5 18H18.5C17.7506 18 17.094 18.4177 16.7516 19.0319C16.8638 19.061 16.9729 19.1104 17.0735 19.1808L26.5 25.7793L35.9265 19.1808C36.0271 19.1104 36.1362 19.061 36.2484 19.0319C35.906 18.4178 35.2494 18 34.5 18ZM36.5 21.2207L27.0735 27.8192C26.7291 28.0603 26.2709 28.0603 25.9265 27.8192L16.5 21.2207V32C16.5 33.1 17.4 34 18.5 34H34.5C35.6 34 36.5 33.1 36.5 32V21.2207Z" fill="black"/>
<rect x="1" y="0.5" width="51" height="51" rx="25.5" stroke="black"/>
</svg>
