<svg width="33" height="16" viewBox="0 0 33 16" fill="none" xmlns="http://www.w3.org/2000/svg">
<g clip-path="url(#clip0_138_10225)">
<path d="M12.8225 11.1937L3.82535 6.09667C3.40029 5.8872 2.97523 5.74756 2.55017 5.74756C1.70005 5.74756 0.779084 6.16648 0.354022 7.00435C-0.354413 8.19135 0.0706478 9.72743 1.27499 10.4257L10.2721 15.5227C10.6972 15.7321 11.1222 15.8718 11.5473 15.8718C12.3974 15.8718 13.3184 15.4528 13.7434 14.615C14.4519 13.428 14.0268 11.8919 12.8225 11.1937Z" fill="white"/>
<path d="M30.7463 6.09652L21.7492 0.999501C21.3241 0.790035 20.8991 0.650391 20.474 0.650391C19.6239 0.650391 18.7029 1.06932 18.2779 1.90719C17.5694 3.09417 17.9945 4.63025 19.1988 5.32847L28.1959 10.4255C28.621 10.635 29.0461 10.7746 29.4711 10.7746C30.3212 10.7746 31.2422 10.3557 31.6673 9.51781C32.4466 8.33083 32.0215 6.72492 30.7463 6.09652Z" fill="white"/>
<path d="M27.8417 11.0541L23.662 8.68018L19.1988 11.1938C17.9945 11.892 17.5694 13.4281 18.2779 14.6151C18.7738 15.4529 19.6239 15.8719 20.474 15.8719C20.8991 15.8719 21.3241 15.7322 21.7492 15.5227L28.9752 11.4032C28.621 11.4032 28.1959 11.2636 27.8417 11.0541Z" fill="white"/>
<path d="M4.17988 5.46807L8.35965 7.84202L12.8228 5.32843C14.0271 4.63021 14.4522 3.09412 13.7438 1.90714C13.0353 0.720168 11.4768 0.301235 10.2724 0.999456L3.04639 5.04914C3.47145 5.11896 3.82567 5.25861 4.17988 5.46807Z" fill="white"/>
</g>
<defs>
<clipPath id="clip0_138_10225">
<rect width="33" height="16" fill="white"/>
</clipPath>
</defs>
</svg>
