<svg width="19" height="19" viewBox="0 0 19 19" fill="none" xmlns="http://www.w3.org/2000/svg">
<mask id="path-1-inside-1_392_12419" fill="white">
<path fill-rule="evenodd" clip-rule="evenodd" d="M6.24926 5.54235C7.01384 4.91482 7.96152 4.50216 9 4.39664V2H10V4.39104C11.0468 4.48547 12.0036 4.89171 12.7769 5.51615L14.4499 3.84317L15.157 4.55028L13.491 6.21627C14.1376 6.98545 14.5644 7.94563 14.6744 9H17V10H14.6827C14.5894 11.0669 14.1723 12.0409 13.5302 12.8233L15.1567 14.4498L14.4496 15.1569L12.8244 13.5317C12.0429 14.1781 11.0683 14.5992 10 14.6956V17H9V14.69C7.94008 14.5823 6.97476 14.1547 6.20215 13.5052L4.55042 15.1569L3.84332 14.4498L5.50202 12.7911C4.87477 12.0143 4.4677 11.0523 4.37566 10H2V9H4.38397C4.4925 7.96013 4.90907 7.01187 5.54081 6.24811L3.84298 4.55028L4.55008 3.84317L6.24926 5.54235Z"/>
</mask>
<path fill-rule="evenodd" clip-rule="evenodd" d="M6.24926 5.54235C7.01384 4.91482 7.96152 4.50216 9 4.39664V2H10V4.39104C11.0468 4.48547 12.0036 4.89171 12.7769 5.51615L14.4499 3.84317L15.157 4.55028L13.491 6.21627C14.1376 6.98545 14.5644 7.94563 14.6744 9H17V10H14.6827C14.5894 11.0669 14.1723 12.0409 13.5302 12.8233L15.1567 14.4498L14.4496 15.1569L12.8244 13.5317C12.0429 14.1781 11.0683 14.5992 10 14.6956V17H9V14.69C7.94008 14.5823 6.97476 14.1547 6.20215 13.5052L4.55042 15.1569L3.84332 14.4498L5.50202 12.7911C4.87477 12.0143 4.4677 11.0523 4.37566 10H2V9H4.38397C4.4925 7.96013 4.90907 7.01187 5.54081 6.24811L3.84298 4.55028L4.55008 3.84317L6.24926 5.54235Z" fill="#FFD54F"/>
<path d="M6.24926 5.54235L5.54215 6.24945L6.18306 6.89036L6.88368 6.31533L6.24926 5.54235ZM9 4.39664L9.10108 5.39152L10 5.30019V4.39664H9ZM9 2V1H8V2H9ZM10 2H11V1H10V2ZM10 4.39104H9V5.30489L9.91015 5.387L10 4.39104ZM12.7769 5.51615L12.1487 6.29417L12.8483 6.85904L13.484 6.22325L12.7769 5.51615ZM14.4499 3.84317L15.157 3.13607L14.4499 2.42896L13.7428 3.13607L14.4499 3.84317ZM15.157 4.55028L15.8641 5.25739L16.5712 4.55028L15.8641 3.84317L15.157 4.55028ZM13.491 6.21627L12.7839 5.50917L12.1354 6.1577L12.7256 6.85976L13.491 6.21627ZM14.6744 9L13.6798 9.1038L13.7733 10H14.6744V9ZM17 9H18V8H17V9ZM17 10V11H18V10H17ZM14.6827 10V9H13.7664L13.6865 9.91287L14.6827 10ZM13.5302 12.8233L12.7572 12.1888L12.1821 12.8894L12.8231 13.5304L13.5302 12.8233ZM15.1567 14.4498L15.8638 15.1569L16.5709 14.4498L15.8638 13.7427L15.1567 14.4498ZM14.4496 15.1569L13.7425 15.864L14.4496 16.5711L15.1567 15.864L14.4496 15.1569ZM12.8244 13.5317L13.5315 12.8246L12.8881 12.1812L12.187 12.7611L12.8244 13.5317ZM10 14.6956L9.91015 13.6996L9 13.7817V14.6956H10ZM10 17V18H11V17H10ZM9 17H8V18H9V17ZM9 14.69H10V13.7864L9.10108 13.6951L9 14.69ZM6.20215 13.5052L6.84563 12.7397L6.14358 12.1495L5.49504 12.7981L6.20215 13.5052ZM4.55042 15.1569L3.84332 15.864L4.55042 16.5711L5.25753 15.864L4.55042 15.1569ZM3.84332 14.4498L3.13621 13.7427L2.4291 14.4498L3.13621 15.1569L3.84332 14.4498ZM5.50202 12.7911L6.20913 13.4982L6.84492 12.8624L6.28005 12.1628L5.50202 12.7911ZM4.37566 10L5.37186 9.91287L5.29202 9H4.37566V10ZM2 10H1V11H2V10ZM2 9V8H1V9H2ZM4.38397 9V10H5.28504L5.37857 9.1038L4.38397 9ZM5.54081 6.24811L6.31137 6.88547L6.89128 6.18437L6.24791 5.541L5.54081 6.24811ZM3.84298 4.55028L3.13587 3.84317L2.42876 4.55028L3.13587 5.25739L3.84298 4.55028ZM4.55008 3.84317L5.25719 3.13607L4.55008 2.42896L3.84298 3.13607L4.55008 3.84317ZM6.88368 6.31533C7.50109 5.80859 8.26456 5.47651 9.10108 5.39152L8.89892 3.40176C7.65847 3.5278 6.52659 4.02104 5.61483 4.76936L6.88368 6.31533ZM10 4.39664V2H8V4.39664H10ZM9 3H10V1H9V3ZM9 2V4.39104H11V2H9ZM9.91015 5.387C10.7535 5.46308 11.5243 5.79 12.1487 6.29417L13.4052 4.73812C12.4829 3.99341 11.34 3.50787 10.0898 3.39509L9.91015 5.387ZM13.484 6.22325L15.157 4.55028L13.7428 3.13607L12.0698 4.80904L13.484 6.22325ZM13.7428 4.55028L14.4499 5.25739L15.8641 3.84317L15.157 3.13607L13.7428 4.55028ZM14.4499 3.84317L12.7839 5.50917L14.1981 6.92338L15.8641 5.25739L14.4499 3.84317ZM12.7256 6.85976C13.2478 7.48096 13.5912 8.25456 13.6798 9.1038L15.669 8.8962C15.5376 7.6367 15.0275 6.48994 14.2565 5.57279L12.7256 6.85976ZM14.6744 10H17V8H14.6744V10ZM16 9V10H18V9H16ZM17 9H14.6827V11H17V9ZM13.6865 9.91287C13.6113 10.7725 13.2757 11.5571 12.7572 12.1888L14.3031 13.4577C15.0689 12.5247 15.5675 11.3613 15.6789 10.0871L13.6865 9.91287ZM12.8231 13.5304L14.4496 15.1569L15.8638 13.7427L14.2373 12.1161L12.8231 13.5304ZM14.4496 13.7427L13.7425 14.4498L15.1567 15.864L15.8638 15.1569L14.4496 13.7427ZM15.1567 14.4498L13.5315 12.8246L12.1173 14.2388L13.7425 15.864L15.1567 14.4498ZM12.187 12.7611C11.556 13.2831 10.7708 13.622 9.91015 13.6996L10.0898 15.6915C11.3657 15.5764 12.5298 15.0731 13.4618 14.3023L12.187 12.7611ZM9 14.6956V17H11V14.6956H9ZM10 16H9V18H10V16ZM10 17V14.69H8V17H10ZM9.10108 13.6951C8.24733 13.6084 7.4696 13.2642 6.84563 12.7397L5.55866 14.2706C6.47992 15.0451 7.63283 15.5562 8.89892 15.6849L9.10108 13.6951ZM5.49504 12.7981L3.84332 14.4498L5.25753 15.864L6.90925 14.2123L5.49504 12.7981ZM5.25753 14.4498L4.55042 13.7427L3.13621 15.1569L3.84332 15.864L5.25753 14.4498ZM4.55042 15.1569L6.20913 13.4982L4.79491 12.084L3.13621 13.7427L4.55042 15.1569ZM6.28005 12.1628C5.77361 11.5357 5.44602 10.7607 5.37186 9.91287L3.37947 10.0871C3.48938 11.3438 3.97593 12.4929 4.724 13.4193L6.28005 12.1628ZM4.37566 9H2V11H4.37566V9ZM3 10V9H1V10H3ZM2 10H4.38397V8H2V10ZM5.37857 9.1038C5.46599 8.26621 5.80121 7.50225 6.31137 6.88547L4.77024 5.61075C4.01693 6.5215 3.51901 7.65405 3.38937 8.8962L5.37857 9.1038ZM6.24791 5.541L4.55008 3.84317L3.13587 5.25739L4.8337 6.95522L6.24791 5.541ZM4.55008 5.25739L5.25719 4.55028L3.84298 3.13607L3.13587 3.84317L4.55008 5.25739ZM3.84298 4.55028L5.54215 6.24945L6.95636 4.83524L5.25719 3.13607L3.84298 4.55028Z" fill="black" mask="url(#path-1-inside-1_392_12419)"/>
</svg>
