<svg width="260" height="260" viewBox="0 0 260 260" fill="none" xmlns="http://www.w3.org/2000/svg">
<path d="M240 128.5C240 142.88 237.168 157.119 231.665 170.404C226.162 183.689 218.096 195.76 207.928 205.928C197.76 216.096 185.689 224.162 172.404 229.665C159.119 235.168 144.88 238 130.5 238C116.12 238 101.881 235.168 88.5961 229.665C75.311 224.162 63.2398 216.096 53.0718 205.928C42.9038 195.76 34.8381 183.689 29.3352 170.404C23.8323 157.119 21 142.88 21 128.5L130.5 128.5L240 128.5Z" fill="#FFECB3" fill-opacity="0.5"/>
<path d="M21 128.5C21 114.12 23.8323 99.8813 29.3352 86.5962C34.8381 73.311 42.9038 61.2398 53.0718 51.0718C63.2398 40.9038 75.311 32.8381 88.5962 27.3352C101.881 21.8323 116.12 19 130.5 19C144.88 19 159.119 21.8323 172.404 27.3352C185.689 32.8381 197.76 40.9038 207.928 51.0718C218.096 61.2398 226.162 73.311 231.665 86.5962C237.168 99.8813 240 114.12 240 128.5L130.5 128.5L21 128.5Z" fill="#FFECB3" fill-opacity="0.1"/>
<path fill-rule="evenodd" clip-rule="evenodd" d="M260 129L0 129V131.5L122.458 131.5L9.32155 178.363L10.4696 181.134L123.607 134.271L37.0154 220.863L39.1367 222.985L125.728 136.393L78.8653 249.53L81.6369 250.678L128.5 137.541L128.5 260H131.5L131.5 137.541L178.363 250.678L181.135 249.53L134.272 136.393L220.863 222.985L222.985 220.863L136.393 134.271L249.53 181.135L250.678 178.363L137.541 131.5L260 131.5V129Z" fill="black"/>
<circle cx="130" cy="130" r="89" transform="rotate(-180 130 130)" fill="#FFCA28" stroke="black" stroke-width="2"/>
<mask id="path-5-inside-1_400_11668" fill="white">
<path d="M40 129C40 117.181 42.3279 105.478 46.8508 94.5585C51.3738 83.6392 58.0031 73.7177 66.3604 65.3604C74.7177 57.0031 84.6392 50.3738 95.5585 45.8508C106.478 41.3279 118.181 39 130 39C141.819 39 153.522 41.3279 164.442 45.8508C175.361 50.3738 185.282 57.0031 193.64 65.3604C201.997 73.7177 208.626 83.6392 213.149 94.5585C217.672 105.478 220 117.181 220 129L130 129L40 129Z"/>
</mask>
<path d="M40 129C40 117.181 42.3279 105.478 46.8508 94.5585C51.3738 83.6392 58.0031 73.7177 66.3604 65.3604C74.7177 57.0031 84.6392 50.3738 95.5585 45.8508C106.478 41.3279 118.181 39 130 39C141.819 39 153.522 41.3279 164.442 45.8508C175.361 50.3738 185.282 57.0031 193.64 65.3604C201.997 73.7177 208.626 83.6392 213.149 94.5585C217.672 105.478 220 117.181 220 129L130 129L40 129Z" fill="#F2F2F2" stroke="white" stroke-width="4" mask="url(#path-5-inside-1_400_11668)"/>
<path d="M118 129C118 127.293 118.336 125.602 118.99 124.025C119.643 122.448 120.6 121.015 121.808 119.808C123.015 118.6 124.448 117.643 126.025 116.99C127.602 116.336 129.293 116 131 116C132.707 116 134.398 116.336 135.975 116.99C137.552 117.643 138.985 118.6 140.192 119.808C141.4 121.015 142.357 122.448 143.01 124.025C143.664 125.602 144 127.293 144 129L131 129H118Z" fill="#D9D9D9"/>
<circle cx="101.75" cy="92" r="13" transform="rotate(-180 101.75 92)" fill="#D9D9D9"/>
<circle cx="72.75" cy="111" r="13" transform="rotate(-180 72.75 111)" fill="#D9D9D9"/>
<path fill-rule="evenodd" clip-rule="evenodd" d="M207.358 129C209.52 125.144 210.75 120.713 210.75 116C210.75 101.088 198.438 89 183.25 89C168.062 89 155.75 101.088 155.75 116C155.75 120.713 156.98 125.144 159.142 129H207.358Z" fill="#D9D9D9"/>
</svg>
